<svg xmlns="http://www.w3.org/2000/svg" version="1.1" xmlns:xlink="http://www.w3.org/1999/xlink" xmlns:svgjs="http://svgjs.com/svgjs" height="100%" width="100%" viewBox="0 0 300 300"><g id="svg-container" transform="matrix(1.87,0,0,1.87,32.246447501182544,115.08023748397827)"><g id="surrounding_shape" transform="matrix(1,0,0,1,-43.905403232574464,4.429143905639648)"><line x1="100" y1="0" x2="100" y2="29.620104980468753" stroke-width="1" stroke="#000000" data-shape-id="custom" surrounded-groups="symbols" fill-type="outline" id="surrounding_shape_0"></line></g><g id="headline" transform="matrix(1,0,0,1,10.770947360992432,0)"><text data-font-id="1152" font-family="quintessential" id="headline_0" transform="matrix(1,0,0,1,60.178340216958595,0)" svgjs:data="{&quot;leading&quot;:&quot;1.3&quot;}"><tspan dy="20.8" x="0" fill="#000000" svgjs:data="{&quot;leading&quot;:&quot;1.3&quot;,&quot;newLined&quot;:true}">Delusion</tspan></text></g><g id="tagline" transform="matrix(0.6093189863443352,0,0,0.6093189863443352,-6.952168740302218,17.05034784326501)"><text data-font-id="1098" font-family="playfair_regular" id="tagline_0" transform="matrix(1.1389347011216218,0,0,1.1389347011216218,117.59280580817966,0.9204423949307445)" svgjs:data="{&quot;leading&quot;:&quot;1.3&quot;}"><tspan dy="20.8" x="0" fill="#000000" svgjs:data="{&quot;leading&quot;:&quot;1.3&quot;,&quot;newLined&quot;:true}">VR BUSINESS</tspan></text></g><g id="symbols" transform="matrix(2.599999651093413,0,0,2.599999651093413,-6.815597996990846,5.773191531782276)"><svg version="1.0" xmlns="http://www.w3.org/2000/svg" viewBox="0 0 1500 1500" data-external-asset-id="330667" width="22.12486341509742" height="22.12486341509742" id="symbols_0" fill="#000000"><path d="M297 1.6c-71.4 10.9-130.8 57.3-159.3 124.3-5.9 14-10.9 30.9-13.3 45.3l-1.8 10.6-32.6.4-32.5.3-8.8 3.2c-12.2 4.3-18.9 8.5-28.3 17.8-6.4 6.4-8.9 9.8-12.6 17.2C-.5 237.2-.1 230 .2 356l.3 111.5 2.8 8c6.3 17.9 19.4 32.8 36.1 41 13.7 6.8 18.2 7.5 53.2 7.5h30.1l.7 5.7c1.1 10.1 8.6 38.5 11.4 43.3 1.4 2.5 4.5 8.6 6.8 13.7 18.1 39.9 52.2 75.2 92.9 96 17 8.6 26.9 11.9 51.5 16.8l12.5 2.5h123c103.3 0 124.4-.2 132-1.5 28.9-4.7 56.5-18.9 79.5-40.9 14.9-14.3 26.9-23 41.7-30.5 46.8-23.4 100-23.7 145.8-.8 16.1 8 25.2 14.5 47.8 34 23.2 20.1 50.3 33.7 76.2 38.1 13.5 2.4 241.4 2.4 257.4.1 73.8-10.8 134.7-59.3 162.5-129.5 5-12.7 9.8-30.1 11.7-42.7l1.2-8.1 32.6-.4c32.2-.4 32.7-.4 40.6-3.1 11.5-3.8 19.9-9.1 29-18.2 9.3-9.3 15.4-19.7 18.5-32.1 1.9-7.4 2-11.5 2-115.3 0-117.5.3-111.5-5.9-124.8-8.4-17.8-23-31.6-41.1-39-11.6-4.6-17.4-5.3-48.6-5.3h-29.1l-1.2-8.6c-4.6-33-19.8-68-41.5-95.9-6.3-8.1-22.4-24.4-31.3-31.7-23.3-19-53.6-34-82.3-40.7-23.2-5.4 7.1-5.1-471.1-5C368.6.2 305.2.4 297 1.6zM415.5 290C283 422.5 174.5 530.8 174.3 530.7c-.1-.2-1-3.4-2-7.3-1.5-6.3-1.7-19.6-2.1-162.9-.2-110.5 0-159.6.8-168.4 3.5-38.1 20.1-72.7 47.8-99.3 25-24 56.7-38.7 92.2-42.7 4.1-.5 83.5-.9 176.5-1l169-.1-241 241zM829.3 50.4c-.4.8-108.6 137.6-240.3 304L349.6 657h-21.8c-19.1 0-22.8-.3-29.6-2.1-4.2-1.2-8.5-2.6-9.5-3.1s-5.7-2.3-10.5-4c-30-10.5-57.7-30.7-76.8-56.1l-7.6-10 266.4-266.4L726.5 49h51.8c44 0 51.7.2 51 1.4zm351.8-.3c13.8 1.4 23.2 3.4 35.8 7.6 54.3 18.1 94.4 65.1 104.1 121.9 1.9 11 2 17.7 2 178.1.1 181.4.3 172.6-5.5 192.8-1.4 5-5 14.1-8 20.2-22.8 47.6-68.5 79.5-122.1 85.3-7.9.8-42.4 1-123.9.8l-113-.3-9-2.7c-17.5-5.1-30.7-12.8-45-25.8-42.8-39.1-87.2-57.8-141.5-59.7-58.2-2.1-111.8 17.7-155 57.2-15.9 14.5-27.9 21.9-43.5 26.8-14.4 4.5-20 4.8-84.7 4.5l-60.7-.3 239.2-303.7L889.5 49h140.6c91.5 0 144.3.4 151 1.1zm254.6 184.4c6.2 3.1 10.2 8.1 12 14.9 1.7 6.7 1.9 200.6.2 208.6-1.4 6.4-6.1 12.7-11.9 16-4.4 2.5-4.8 2.5-31.7 2.8l-27.3.3V232h26.8c26.7 0 26.8 0 31.9 2.5zM120 356.5V479H96c-27.8 0-31.5-.8-38.7-8.2-8.5-8.9-7.8 1.4-8.1-112.3-.2-70.9 0-102.5.8-106.1 1.5-6.9 5.9-12.7 12.2-15.8 5.2-2.6 5.2-2.6 31.5-2.6H120v122.5z"></path></svg></g></g><defs><style>@font-face {font-family: quintessential;src: url(https://pismo.tailorbrands.com/v2/px_fonts/quintessential)}</style><style>@font-face {font-family: playfair_regular;src: url(https://pismo.tailorbrands.com/v2/px_fonts/playfair_regular)}</style></defs></svg>