<?xml version="1.0" encoding="UTF-8"?>
<svg width="43px" height="48px" viewBox="0 0 43 48" version="1.1" xmlns="http://www.w3.org/2000/svg" xmlns:xlink="http://www.w3.org/1999/xlink">
    <title>build1</title>
    <g id="Page-1" stroke="none" stroke-width="1" fill="none" fill-rule="evenodd">
        <g id="AR/VR-Page-V2" transform="translate(-289.000000, -2639.000000)" fill="#000000">
            <g id="Group-15" transform="translate(263.000000, 2639.000000)">
                <g id="build1" transform="translate(26.000000, -0.000000)">
                    <path d="M26.9166667,5.73611171 C26.75,5.73611171 26.58,5.69333333 26.4238889,5.60277778 L21.1983333,2.595 L15.9538889,5.60388889 C15.4825446,5.87487557 14.8808331,5.71427022 14.6072222,5.24444444 C14.4765087,5.01862804 14.4412998,4.74999011 14.509405,4.49811563 C14.5775102,4.24624116 14.7432994,4.03195179 14.97,3.90277778 L20.7072222,0.611111111 C21.0125551,0.435417524 21.3883972,0.435841009 21.6933333,0.612222222 L27.4111111,3.90388889 C27.8833333,4.17555556 28.0444444,4.77555556 27.7722222,5.245 C27.5948811,5.54941868 27.268974,5.73649783 26.9166667,5.73611171 L26.9166667,5.73611171 Z M21.1994444,31.6066706 C20.9384558,31.6074043 20.6878797,31.5043579 20.5029158,31.3202276 C20.3179519,31.1360973 20.2137746,30.8859893 20.2133333,30.625 L20.2133333,24.0411111 C20.2137746,23.7801218 20.3179519,23.5300138 20.5029158,23.3458835 C20.6878797,23.1617532 20.9384558,23.0587068 21.1994444,23.0594405 C21.7438889,23.0594405 22.185,23.4983333 22.185,24.0411111 L22.185,30.625 C22.1845585,30.8858928 22.0804575,31.1359164 21.8956138,31.3200307 C21.7107702,31.504145 21.4603369,31.6072566 21.1994444,31.6066706 L21.1994444,31.6066706 Z M1.54166667,20.3055581 C1.28087034,20.305998 1.03057984,20.2028211 0.84585643,20.0187228 C0.661133016,19.8346245 0.55710832,19.5846852 0.556666667,19.3238889 L0.556666667,12.7427778 C0.55710832,12.4819814 0.661133016,12.2320421 0.84585643,12.0479439 C1.03057984,11.8638456 1.28087034,11.7606687 1.54166667,11.7611097 C2.08611111,11.7611097 2.52722222,12.2005556 2.52722222,12.7427778 L2.52722222,19.3238889 C2.5267807,19.5847817 2.42267971,19.8348053 2.23783607,20.0189196 C2.05299243,20.2030339 1.80255915,20.3061455 1.54166667,20.3055581 L1.54166667,20.3055581 Z M40.8322222,20.3055595 C40.5712336,20.3062932 40.3206575,20.2032468 40.1356936,20.0191165 C39.9507297,19.8349862 39.8465524,19.5848782 39.8461111,19.3238889 L39.8455556,12.7427778 C39.8455556,12.2016667 40.2866667,11.7611111 40.8311111,11.7611111 C41.3744444,11.7611111 41.8161111,12.2005556 41.8161111,12.7427778 L41.8172222,19.3238889 C41.8167806,19.5846852 41.7127559,19.8346245 41.5280325,20.0187228 C41.343309,20.2028211 41.0930186,20.305998 40.8322222,20.3055595 L40.8322222,20.3055595 Z M40.8333333,36.3211111 C40.5724408,36.3218488 40.3219488,36.2188785 40.1370009,36.0348684 C39.952053,35.8508582 39.8478108,35.6008929 39.8472222,35.34 L39.8416667,28.7583333 C39.8431988,28.2156873 40.2840192,27.7768559 40.8266667,27.7777763 L40.8277778,27.7777763 C41.3722222,27.7777763 41.8138889,28.2161111 41.8138889,28.7583333 L41.8177778,35.3394444 C41.8177778,35.600235 41.7140656,35.85032 41.5295025,36.0345704 C41.3449395,36.2188207 41.0946791,36.3221092 40.8338889,36.3216681 L40.8327778,36.3216681 L40.8333333,36.3211111 Z M1.54166667,36.3211111 C0.998802858,36.3220326 0.557892697,35.8828632 0.556666667,35.34 L0.556666667,28.7583333 C0.558198788,28.2156873 0.999019228,27.7768559 1.54166667,27.7777763 C2.08611111,27.7777763 2.52722222,28.2166667 2.52722222,28.7588889 L2.52722222,35.3405556 C2.52663352,35.601352 2.42246761,35.8512329 2.23763994,36.0352271 C2.05281228,36.2192213 1.80246308,36.3222567 1.54166667,36.3216692 L1.54166667,36.3211111 Z" id="Shape"></path>
                    <path d="M21.1994444,9.61833727 C20.9384558,9.61907097 20.6878797,9.51602454 20.5029158,9.33189428 C20.3179519,9.14776401 20.2137746,8.89765595 20.2133333,8.63666667 L20.2133333,1.46111111 C20.2137746,1.20012183 20.3179519,0.950013764 20.5029158,0.765883499 C20.6878797,0.581753233 20.9384558,0.478706812 21.1994444,0.479440511 C21.7438889,0.479440511 22.185,0.918333333 22.185,1.46111111 L22.185,8.63666667 C22.1845585,8.89755945 22.0804575,9.14758309 21.8956138,9.33169736 C21.7107702,9.51581163 21.4603369,9.6189233 21.1994444,9.61833727 M21.1994444,47.6322262 C20.9384558,47.6329599 20.6878797,47.5299134 20.5029158,47.3457832 C20.3179519,47.1616529 20.2137746,46.9115448 20.2133333,46.6505556 L20.2133333,40.0694444 C20.2137746,39.8084552 20.3179519,39.5583471 20.5029158,39.3742168 C20.6878797,39.1900866 20.9384558,39.0870401 21.1994444,39.0877738 C21.7438889,39.0877738 22.185,39.5272222 22.185,40.0694444 L22.185,46.6505556 C22.1845585,46.9114483 22.0804575,47.161472 21.8956138,47.3455863 C21.7107702,47.5297005 21.4603369,47.6328122 21.1994444,47.6322262" id="Shape"></path>
                    <path d="M21.1994444,47.6322222 C21.03,47.6322222 20.8588889,47.5888889 20.7061111,47.5011111 L14.9483333,44.1888889 C14.7221029,44.059381 14.5569522,43.8448983 14.4895647,43.5930821 C14.4221773,43.3412658 14.4581327,43.072966 14.5894444,42.8477778 C14.863045,42.3778919 15.4649548,42.2174819 15.9361111,42.4888889 L21.1994444,45.5177778 L26.3916667,42.5255556 C26.8627433,42.2542358 27.4644944,42.414041 27.7388889,42.8833333 C28.0122222,43.3522222 27.8505556,43.9533333 27.3788889,44.225 L21.6927778,47.5 C21.5428363,47.5866607 21.3726275,47.6320881 21.1994444,47.6316667 M21.1994444,25.0222222 C21.03,25.0222222 20.8594444,24.9788889 20.7061111,24.8916667 L14.9683333,21.5977778 C14.7421806,21.468218 14.5769535,21.2539077 14.5091878,21.0022361 C14.441422,20.7505645 14.4767005,20.4822656 14.6072222,20.2566667 C14.881079,19.7869473 15.4823715,19.6257761 15.9544444,19.8955556 L21.1988889,22.9077778 L26.4238889,19.8977778 C26.8950029,19.6254292 27.497654,19.7854074 27.7716667,20.2555556 C28.0444444,20.7244444 27.8827778,21.3255556 27.4116667,21.5972222 L21.6927778,24.8905556 C21.5428904,24.9774104 21.3726782,25.0230304 21.1994444,25.0227788 M35.1066667,17.0177829 C34.7544515,17.0189135 34.4285279,16.8315816 34.2522222,16.5266667 C34.1210931,16.301208 34.0854755,16.032704 34.153289,15.7808552 C34.2211024,15.5290065 34.3867258,15.3146891 34.6133333,15.1855556 L40.3383333,11.8927778 C40.8093262,11.6227731 41.4099248,11.7829658 41.6838889,12.2516667 C41.9572222,12.7222222 41.7955556,13.3222222 41.3233333,13.5938889 L35.5988889,16.8855556 C35.4433333,16.9744444 35.2744444,17.0177829 35.1066667,17.0177829" id="Shape"></path>
                    <path d="M40.8294444,13.725043 C40.6627778,13.725043 40.4922222,13.6822222 40.3377778,13.5933333 L34.6044444,10.2977778 C34.3781407,10.1685122 34.2126875,9.95438381 34.1447051,9.70278621 C34.0767226,9.45118862 34.1118176,9.18287148 34.2422222,8.95722222 C34.5166633,8.48777646 35.1182364,8.32734045 35.59,8.59777778 L41.3233333,11.8933333 C41.711274,12.1141338 41.9009903,12.569194 41.7847806,13.0001767 C41.6685708,13.4311595 41.2758003,13.7291585 40.8294444,13.725043 M7.26944444,17.0177778 C7.10166667,17.0177778 6.93277778,16.975 6.77722222,16.8855556 L1.04833333,13.5944444 C0.822142853,13.4647773 0.65690565,13.2503676 0.589143669,12.9986058 C0.521381688,12.746844 0.556674786,12.4784613 0.687222222,12.2527778 C0.961447311,11.7834029 1.56284792,11.6229467 2.03444444,11.8933333 L7.76277778,15.1861111 C7.98923267,15.3153778 8.15479474,15.5296073 8.22278531,15.7813392 C8.29077587,16.0330712 8.2555818,16.3015231 8.125,16.5272222 C7.94782536,16.8318084 7.62181244,17.0189483 7.26944444,17.0183348" id="Shape"></path>
                    <path d="M1.54222222,13.7250403 C1.09543046,13.7290303 0.702412957,13.4305064 0.586432422,12.9990117 C0.470451888,12.567517 0.660840849,12.1121805 1.04944444,11.8916667 L6.77333333,8.60833333 C7.24463348,8.33763444 7.84609024,8.49880101 8.11888889,8.96888889 C8.39111111,9.43777778 8.22888889,10.0383333 7.75777778,10.3094444 L2.03333333,13.5938889 C1.87777778,13.6827778 1.70888889,13.7250403 1.54166667,13.7250403 M35.0955556,39.6138915 C34.7428445,39.6147019 34.4164942,39.4272781 34.2394444,39.1222222 C34.1091109,38.8965901 34.074115,38.6283055 34.1422077,38.37679 C34.2103004,38.1252745 34.3758618,37.9112867 34.6022222,37.7822222 L40.3411111,34.4894444 C40.8122453,34.2181814 41.4140278,34.3788719 41.6872222,34.8488889 C41.8176068,35.0746903 41.8526319,35.343142 41.7845468,35.5948379 C41.7164617,35.8465338 41.5508803,36.0607205 41.3244444,36.19 L35.5861111,39.4833333 C35.4366892,39.568676 35.2676317,39.6136686 35.0955556,39.6138915" id="Shape"></path>
                    <path d="M40.8322222,36.3216951 C40.6644444,36.3216951 40.4938889,36.2788889 40.3394444,36.19 L34.6111111,32.8972222 C34.3845799,32.7678741 34.2190461,32.5534591 34.1512484,32.3015647 C34.0834507,32.0496703 34.1189977,31.7811342 34.25,31.5555556 C34.5241978,31.0864528 35.125382,30.9262363 35.5966667,31.1966667 L41.3255556,34.4894444 C41.7130513,34.7105174 41.902473,35.1652969 41.7864834,35.5960783 C41.6704937,36.0268596 41.2783329,36.3250456 40.8322222,36.3216951 M7.26944444,39.6177778 C7.10166667,39.6177778 6.93277778,39.575 6.77611111,39.4861111 L1.04777778,36.1888889 C0.821794577,36.0591553 0.656822893,35.8447195 0.589364573,35.5930281 C0.521906253,35.3413366 0.557522686,35.0731393 0.688333333,34.8477778 C0.962548763,34.3783438 1.56414636,34.2180831 2.03555556,34.4888889 L7.76388889,37.7855556 C7.99030785,37.9148764 8.1556948,38.1292764 8.22329524,38.3811089 C8.29089567,38.6329414 8.25510924,38.9013433 8.12388889,39.1266667 C7.94710635,39.4310308 7.62142312,39.6180128 7.26944444,39.6172222" id="Shape"></path>
                    <path d="M1.54222222,36.3216687 C1.19041141,36.3223733 0.864932882,36.1353872 0.688333333,35.8311111 C0.416111111,35.3622222 0.576666667,34.7611111 1.04833333,34.4905556 L6.76611111,31.1966667 C7.23751545,30.9245061 7.84025517,31.0850048 8.11388889,31.5555556 C8.38666667,32.0244444 8.225,32.6255556 7.75388889,32.8972222 L2.03555556,36.19 C1.88,36.2788889 1.71,36.3216687 1.54222222,36.3216687 M1.54222222,13.3028234 C1.2872325,13.3060194 1.06244947,13.1360818 0.99605023,12.8898676 C0.929650987,12.6436535 1.03851103,12.3837387 1.26055556,12.2583333 L20.9177778,0.976666667 C21.1869064,0.821433667 21.5309058,0.913398823 21.6866667,1.18222222 C21.8422222,1.45 21.7488889,1.79222222 21.4805556,1.94666667 L1.82222222,13.2277778 C1.73333333,13.2783333 1.63722222,13.3028234 1.54222222,13.3028234" id="Shape"></path>
                    <path d="M1.54222222,35.9000073 C1.28829885,35.9012876 1.06535523,35.731398 0.999238155,35.4862301 C0.933121083,35.2410623 1.0404153,34.9821139 1.26055556,34.8555556 L40.5505556,12.2583333 C40.7239702,12.1541298 40.9401065,12.1515643 41.1159457,12.2516222 C41.2917849,12.3516801 41.3999832,12.5388021 41.3989882,12.7411138 C41.3979793,12.9434254 41.2879328,13.1294665 41.1111111,13.2277778 L1.82222222,35.8244444 C1.73689559,35.8736069 1.64014295,35.8994714 1.54166667,35.8994444" id="Path"></path>
                    <path d="M40.8294444,13.3027778 C40.73153,13.3025393 40.6353824,13.2766828 40.5505556,13.2277778 L20.9166667,1.94611111 C20.7878808,1.87198521 20.6939559,1.74957995 20.655688,1.60599714 C20.6174201,1.46241432 20.6379664,1.30950004 20.7127778,1.18111111 C20.7871571,1.05215572 20.9097332,0.95804326 21.0535229,0.919490929 C21.1973127,0.880938598 21.3505292,0.901106689 21.4794444,0.975555556 L41.1111111,12.2594444 C41.3331556,12.3848498 41.4420157,12.6447646 41.3756164,12.8909787 C41.3092172,13.1371929 41.0844342,13.3071306 40.8294444,13.3039345 M40.8322222,35.9000033 C40.7366667,35.9000033 40.64,35.875 40.5522222,35.8244444 L1.26055556,13.2277778 C1.13156216,13.154147 1.03730315,13.0320642 0.998708316,12.8886375 C0.960113482,12.7452107 0.980377199,12.592311 1.055,12.4638889 C1.21031072,12.1955385 1.55355193,12.1035767 1.82222222,12.2583333 L41.1138889,34.8555556 C41.3833333,35.0105556 41.475,35.3527778 41.3194444,35.6205556 C41.2186998,35.7941348 41.0329179,35.9006893 40.8322222,35.9000033 M21.1983333,47.2111111 C21.1038889,47.2111111 21.0061111,47.1861111 20.9183333,47.1355556 L1.26055556,35.8244444 C1.13108617,35.7508258 1.03651685,35.6283959 0.997992094,35.4845284 C0.959467337,35.3406608 0.980200372,35.1873553 1.05555556,35.0588889 C1.21144621,34.7912037 1.5543548,34.6998276 1.82277778,34.8544444 L21.48,46.1655556 C21.7020445,46.2909609 21.8109046,46.5508757 21.7445053,46.7970899 C21.6781061,47.043304 21.4533231,47.2132417 21.1983333,47.21" id="Shape"></path>
                    <path d="M21.2,47.2111111 C21.0055556,47.2111111 20.8172222,47.1111111 20.7127778,46.9311111 C20.6380124,46.8026547 20.6175507,46.6496895 20.655925,46.5060987 C20.6942993,46.3625078 20.7883421,46.2401438 20.9172222,46.1661111 L40.5505556,34.8555556 C40.6794179,34.7804383 40.8328858,34.7597197 40.9770541,34.7979769 C41.1212224,34.8362342 41.2442255,34.9303186 41.3188889,35.0594444 C41.3935693,35.1877164 41.4141011,35.3404453 41.3759476,35.4838858 C41.3377941,35.6273262 41.2440959,35.7496713 41.1155556,35.8238889 L21.4811111,47.135 C21.3922222,47.1861111 21.2955556,47.2105556 21.2,47.2105556 M1.54166667,35.9 C1.23055556,35.9 0.979444444,35.6488889 0.979444444,35.34 L0.979444444,12.7433333 C0.979444444,12.4338889 1.23055556,12.1833333 1.54166667,12.1833333 C1.85277778,12.1833333 2.10444444,12.4338889 2.10444444,12.7433333 L2.10444444,35.34 C2.10400307,35.4888161 2.04446247,35.6313617 1.93892102,35.736278 C1.83337957,35.8411944 1.69048279,35.9 1.54166667,35.8994444" id="Shape"></path>
                    <path d="M40.8333333,35.9000044 C40.6843251,35.9005904 40.5412014,35.8418868 40.4355236,35.7368344 C40.3298459,35.6317819 40.2702939,35.4890091 40.27,35.34 L40.2683333,12.7433333 C40.2686276,12.5944208 40.3281033,12.4517325 40.4336607,12.3466961 C40.5392181,12.2416597 40.682199,12.1828907 40.8311111,12.1833309 C41.1422222,12.1833309 41.3933333,12.4338889 41.3933333,12.7433333 L41.395,35.34 C41.395,35.6488889 41.1438889,35.8994444 40.8327778,35.8994444 M21.1994444,47.1461136 C21.0506283,47.1461136 20.9077315,47.087861 20.8021901,46.9829447 C20.6966486,46.8780284 20.637108,46.7354828 20.6366667,46.5866667 L20.6366667,1.46111111 C20.6369609,1.3121986 20.6964366,1.1695103 20.801994,1.06447388 C20.9075515,0.959437463 21.0505323,0.901108629 21.1994444,0.901108629 C21.5105556,0.901108629 21.7622222,1.15166667 21.7622222,1.46111111 L21.7622222,46.5861111 C21.7617809,46.7349272 21.7022402,46.8774728 21.5966988,46.9823892 C21.4911573,47.0873055 21.3482606,47.1461136 21.1994444,47.1455556" id="Shape"></path>
                </g>
            </g>
        </g>
    </g>
</svg>