<?xml version="1.0" encoding="UTF-8"?>
<svg width="41px" height="45px" viewBox="0 0 41 45" version="1.1" xmlns="http://www.w3.org/2000/svg" xmlns:xlink="http://www.w3.org/1999/xlink">
    <title>cc1</title>
    <g id="Page-1" stroke="none" stroke-width="1" fill="none" fill-rule="evenodd">
        <g id="AR/VR-Page-V2" transform="translate(-332.000000, -2489.000000)" fill-rule="nonzero">
            <g id="Group-4" transform="translate(332.000000, 2487.000000)">
                <g id="cc1" transform="translate(0.000000, 2.000000)">
                    <path d="M0.584,10.93 L19.964,0.299 C20.304,0.113 20.714,0.114 21.051,0.301 L40.202,10.93 C40.56,11.128 40.782,11.505 40.782,11.913 L40.782,33.089 C40.782,33.497 40.56,33.874 40.202,34.072 L21.052,44.7 C20.7140506,44.8872842 20.3036363,44.8880393 19.965,44.702 L0.584,34.071 C0.22335118,33.8731953 -0.000592363423,33.4943319 -1.17226729e-06,33.083 L-1.17226729e-06,11.916 C-1.17226729e-06,11.506 0.224,11.127 0.584,10.93 Z" id="Path" fill="#000000"></path>
                    <path d="M20.531,7.313 C26.233,7.313 31.201,10.455 33.799,15.103 L27.149,18.772 C25.4542597,15.7649336 21.9446997,14.2790976 18.6059693,15.1551527 C15.2672389,16.0312078 12.9393274,19.0487478 12.9393274,22.5005 C12.9393274,25.9522522 15.2672389,28.9697922 18.6059693,29.8458473 C21.9446997,30.7219024 25.4542597,29.2360664 27.149,26.229 L33.799,29.897 C31.202,34.545 26.233,37.687 20.531,37.687 C12.143,37.687 5.344,30.887 5.344,22.5 C5.344,14.112 12.144,7.312 20.531,7.312 L20.531,7.313 Z" id="Path" fill="#FFFFFF"></path>
                    <g id="Group" transform="translate(31.000000, 18.000000)" fill="#FFFFFF">
                        <path d="M1.062,2.531 L6.968,2.531 L6.968,3.656 L1.062,3.656 L1.062,2.531 Z M0.781,4.781 L6.687,4.781 L6.687,5.906 L0.781,5.906 L0.781,4.781 Z" id="Shape"></path>
                        <path d="M2.84,0.523 L3.959,0.64 L3.224,7.633 L2.104,7.515 L2.84,0.523 Z M4.808,0.523 L5.927,0.64 L5.192,7.633 L4.072,7.515 L4.808,0.523 Z" id="Shape"></path>
                    </g>
                </g>
            </g>
        </g>
    </g>
</svg>