<?xml version="1.0" encoding="UTF-8"?>
<svg width="39px" height="45px" viewBox="0 0 39 45" version="1.1" xmlns="http://www.w3.org/2000/svg" xmlns:xlink="http://www.w3.org/1999/xlink">
    <title>cc2</title>
    <defs>
        <polygon id="path-1" points="0 0.014 37.959 0.014 37.959 33.787 0 33.787"></polygon>
    </defs>
    <g id="Page-1" stroke="none" stroke-width="1" fill="none" fill-rule="evenodd">
        <g id="AR/VR-Page-V2" transform="translate(-413.000000, -2489.000000)">
            <g id="Group-4" transform="translate(332.000000, 2487.000000)">
                <g id="cc2" transform="translate(81.000000, 2.000000)">
                    <g id="Clipped" transform="translate(0.000000, 0.003000)">
                        <mask id="mask-2" fill="white">
                            <use xlink:href="#path-1"></use>
                        </mask>
                        <g id="a"></g>
                        <path d="M30.266,21.486 C30.058,21.555 29.846,21.621 29.628,21.686 C29.148,20.164 28.499,18.547 27.706,16.876 C28.4266437,15.3396255 29.0436883,13.7567574 29.553,12.138 C29.942,12.25 30.319,12.368 30.682,12.494 C34.195,13.703 36.337,15.491 36.337,16.868 C36.337,18.336 34.023,20.241 30.266,21.486 M28.889,29.585 C28.663,30.803 28.209,31.615 27.646,31.941 C26.45,32.634 23.892,31.734 21.133,29.36 C20.8070035,29.0788919 20.4888807,28.78878 20.179,28.49 C21.249,27.32 22.317,25.96 23.36,24.45 C25.0898232,24.3038657 26.8075447,24.0389069 28.501,23.657 C28.579,23.969 28.647,24.275 28.707,24.575 C29.087,26.494 29.141,28.229 28.889,29.585 M19.042,27.329 C18.2365586,26.4554398 17.4743151,25.5430169 16.758,24.595 C17.485,24.624 18.226,24.638 18.979,24.638 C19.753,24.638 20.518,24.621 21.271,24.588 C20.5752901,25.5388076 19.8313146,26.4533401 19.042,27.328 M17.19,29.161 C15.717,30.449 14.242,31.362 12.941,31.821 C11.772,32.234 10.841,32.246 10.279,31.921 C9.081,31.231 8.584,28.565 9.263,24.99 C9.343,24.567 9.436,24.147 9.54,23.73 C11.094,24.073 12.816,24.32 14.655,24.47 C15.6516692,25.8818941 16.7400125,27.2267897 17.913,28.496 C17.678,28.723 17.437,28.946 17.19,29.161 M8.403,21.77 C8.08831281,21.6800265 7.77588509,21.5823304 7.466,21.477 C5.615,20.844 4.086,20.022 3.038,19.125 C2.097,18.319 1.621,17.518 1.621,16.868 C1.621,15.486 3.682,13.723 7.119,12.525 C7.551,12.375 7.986,12.238 8.426,12.114 C8.93630422,13.7510374 9.5543196,15.3525324 10.276,16.908 C9.54529165,18.4856572 8.91959618,20.1098598 8.403,21.77 M10.253,1.897 C11.523,1.162 14.331,2.21 17.291,4.838 C17.481,5.006 17.671,5.182 17.861,5.364 C16.6957994,6.6247615 15.6154321,7.96135685 14.627,9.365 C12.9234286,9.51807186 11.2315561,9.78128915 9.562,10.153 C9.46517275,9.7652574 9.37814505,9.37513324 9.301,8.983 C8.588,5.337 9.061,2.587 10.253,1.897 M18.997,6.523 C19.745,7.333 20.494,8.238 21.231,9.219 C19.7364925,9.14871969 18.2395075,9.14871969 16.745,9.219 C17.4510409,8.28397848 18.2026144,7.38422621 18.997,6.523 M26.767,15.002 C26.4161927,14.3361284 26.0521201,13.6773303 25.675,13.026 C25.3036776,12.3851107 24.9185882,11.7522971 24.52,11.128 C25.6829067,11.2726759 26.837975,11.4745875 27.981,11.733 C27.6312215,12.8424022 27.2257062,13.933455 26.766,15.002 M25.681,20.767 C26.0625437,20.1049122 26.4293013,19.4344128 26.781,18.756 C27.2638526,19.8461588 27.6897596,20.9606599 28.057,22.095 C26.956,22.346 25.767,22.548 24.516,22.699 C24.917,22.062 25.306,21.419 25.681,20.767 M12.068,16.907 C13.0662943,14.8257095 14.2212854,12.8232793 15.523,10.917 C17.8264379,10.7437286 20.1396626,10.7443971 22.443,10.919 C23.0864877,11.8705301 23.6962003,12.8444693 24.271,13.839 C24.8495352,14.8359838 25.3954905,15.8515207 25.908,16.884 C25.4009929,17.927374 24.8569814,18.9523572 24.277,19.957 C23.70167,20.9558218 23.0940156,21.9356728 22.455,22.895 C21.329,22.975 20.165,23.017 18.979,23.017 C17.799,23.017 16.649,22.98 15.543,22.909 C14.2352729,20.9986349 13.0736384,18.9922665 12.068,16.907 M11.206,15 C10.7507011,13.9256495 10.3482203,12.8296735 10,11.716 C11.1369418,11.4643552 12.2852489,11.2671307 13.441,11.125 C12.6357671,12.3809773 11.889946,13.6740676 11.206,15 M11.208,18.814 C11.9015715,20.1538574 12.6584252,21.4599973 13.476,22.728 C12.3007986,22.6003501 11.1329274,22.412436 9.977,22.165 C10.3319097,21.0288703 10.7424042,19.9108569 11.207,18.815 M21.007,4.562 C23.809,2.124 26.428,1.161 27.622,1.849 C28.892,2.582 29.387,5.539 28.588,9.415 C28.536,9.667 28.479,9.919 28.418,10.169 C26.7455332,9.79026116 25.0498243,9.52267588 23.342,9.368 C22.363899,7.96241399 21.2921348,6.62437914 20.134,5.363 C20.418,5.089 20.709,4.822 21.007,4.563 M31.21,10.96 C30.8059745,10.8210866 30.3985118,10.692379 29.988,10.574 C30.056,10.298 30.118,10.02 30.177,9.741 C31.101,5.251 30.497,1.634 28.431,0.443 C26.451,-0.699 23.213,0.492 19.942,3.338 C19.62,3.619 19.305,3.908 18.997,4.205 C18.7905981,4.00779454 18.5805621,3.81442806 18.367,3.625 C14.94,0.582 11.505,-0.701 9.442,0.494 C7.463,1.639 6.877,5.04 7.71,9.294 C7.792,9.716 7.886,10.135 7.99,10.552 C7.504,10.69 7.034,10.837 6.585,10.994 C2.567,12.394 0,14.59 0,16.868 C0,19.221 2.755,21.581 6.941,23.011 C7.281,23.127 7.623,23.234 7.967,23.332 C7.855,23.781 7.756,24.232 7.669,24.687 C6.875,28.868 7.495,32.189 9.469,33.327 C11.506,34.502 14.927,33.294 18.257,30.383 C18.5270548,30.1463188 18.7911376,29.9029091 19.049,29.653 C19.383,29.974 19.725,30.286 20.075,30.589 C23.301,33.365 26.488,34.486 28.459,33.345 C30.495,32.166 31.157,28.599 30.297,24.26 C30.2295329,23.9198849 30.1538441,23.5814525 30.07,23.245 C30.31,23.175 30.546,23.101 30.776,23.025 C35.127,21.583 37.959,19.252 37.959,16.868 C37.959,14.583 35.309,12.372 31.209,10.961" id="Shape" fill="#000000" fill-rule="nonzero" mask="url(#mask-2)"></path>
                    </g>
                    <path d="M18.98,20.261 C20.8522453,20.261 22.37,18.7432453 22.37,16.871 C22.37,14.9987547 20.8522453,13.481 18.98,13.481 C17.1077547,13.481 15.59,14.9987547 15.59,16.871 C15.59,18.7432453 17.1077547,20.261 18.98,20.261" id="Path" fill="#000000" fill-rule="nonzero"></path>
                    <g id="Group" transform="translate(0.000000, 38.000000)" fill-rule="nonzero">
                        <path d="M1.293,3.368 L1.293,1.713 L2.709,1.713 C3.005,1.713 3.227,1.778 3.376,1.907 C3.524,2.036 3.598,2.243 3.598,2.528 C3.598,2.825 3.524,3.038 3.376,3.17 C3.227,3.302 3.006,3.368 2.709,3.368 L1.293,3.368 L1.293,3.368 Z M0,0.708 L0,6.588 L1.293,6.588 L1.293,4.29 L2.585,4.29 C2.909,4.29 3.142,4.361 3.285,4.504 C3.428,4.647 3.521,4.872 3.565,5.179 C3.595,5.389 3.617,5.607 3.633,5.835 L3.639,5.92 C3.656,6.178 3.699,6.4 3.771,6.587 L5.063,6.587 C4.99922331,6.4965567 4.95339465,6.39471522 4.928,6.287 C4.89685022,6.1637841 4.8747909,6.03844706 4.862,5.912 C4.84810952,5.78333113 4.83810497,5.6542724 4.832,5.525 L4.825,5.363 L4.816,5.196 C4.80512584,5.04652298 4.78475134,4.89788936 4.755,4.751 C4.72694478,4.60908072 4.67843914,4.47198492 4.611,4.344 C4.48119612,4.08303676 4.24369788,3.89194202 3.961,3.821 L3.961,3.804 C4.289,3.673 4.527,3.48 4.672,3.228 C4.818,2.975 4.89,2.676 4.89,2.331 C4.89,2.106 4.85,1.896 4.771,1.701 C4.69232704,1.5073568 4.57453704,1.33203354 4.425,1.186 C4.2689961,1.03448509 4.08441556,0.915510525 3.882,0.836 C3.65504115,0.748276851 3.41329178,0.705155827 3.17,0.709 L0,0.709 L0,0.708 Z M8.652,4.002 L6.75,4.002 C6.756,3.92 6.773,3.826 6.804,3.722 C6.87292847,3.48911649 7.03711339,3.29623553 7.256,3.191 C7.38,3.128 7.535,3.096 7.722,3.096 C8.007,3.096 8.22,3.173 8.36,3.326 C8.5,3.48 8.597,3.706 8.652,4.002 Z M6.75,4.742 L9.821,4.742 C9.84397521,4.42431367 9.8162964,4.10499471 9.739,3.796 C9.66731575,3.50529734 9.5399675,3.2312439 9.364,2.989 C9.18989141,2.75197668 8.96287128,2.55885548 8.701,2.425 C8.40732259,2.27943317 8.08268564,2.20736788 7.755,2.215 C7.431,2.215 7.135,2.273 6.869,2.388 C6.61049913,2.49827386 6.37685416,2.65947869 6.182,2.862 C5.99,3.062 5.842,3.299 5.737,3.574 C5.633,3.848 5.581,4.144 5.581,4.463 C5.581,4.793 5.631,5.094 5.733,5.369 C5.835,5.643 5.979,5.879 6.166,6.077 C6.352,6.274 6.58,6.427 6.849,6.534 C7.118,6.641 7.419,6.694 7.755,6.694 C8.238,6.694 8.649,6.584 8.989,6.364 C9.329,6.145 9.582,5.78 9.747,5.27 L8.717,5.27 C8.679,5.402 8.575,5.526 8.405,5.644 C8.235,5.762 8.032,5.821 7.795,5.821 C7.466,5.821 7.214,5.736 7.038,5.566 C6.863,5.396 6.767,5.122 6.75,4.743 L6.75,4.742 Z M10.43,3.64 C10.446,3.365 10.514,3.137 10.635,2.956 C10.755,2.776 10.909,2.63 11.096,2.52 C11.291315,2.40684768 11.5042944,2.32740297 11.726,2.285 C11.9577799,2.23847988 12.1935977,2.215 12.43,2.215 C12.644,2.215 12.86,2.23 13.08,2.261 C13.3,2.291 13.5,2.35 13.681,2.438 C13.862,2.525 14.011,2.648 14.126,2.804 C14.241,2.96 14.299,3.168 14.299,3.426 L14.299,5.64 C14.299,5.832 14.309,6.016 14.332,6.192 C14.354,6.368 14.392,6.499 14.447,6.587 L13.26,6.587 C13.2155163,6.45364377 13.1879671,6.31522604 13.178,6.175 C12.9967314,6.36409792 12.7697543,6.50324627 12.519,6.579 C12.267,6.656 12.009,6.694 11.745,6.694 C11.5531678,6.6955182 11.3620399,6.67061774 11.177,6.62 C11.0098898,6.57470598 10.8535013,6.49651176 10.717,6.39 C10.5837552,6.28442157 10.4775037,6.14869389 10.407,5.994 C10.3292861,5.81497391 10.2917391,5.62109515 10.297,5.426 C10.297,5.185 10.339,4.986 10.424,4.829 C10.509,4.673 10.619,4.548 10.754,4.455 C10.888,4.361 11.042,4.291 11.214,4.245 C11.387,4.198 11.562,4.161 11.737,4.134 C11.884,4.111 12.028,4.092 12.171,4.076 L12.256,4.068 C12.4086121,4.05448917 12.5600217,4.02975559 12.709,3.994 C12.8226571,3.96961267 12.9295317,3.92044349 13.022,3.85 C13.098,3.786 13.134,3.695 13.129,3.574 C13.1337524,3.4703882 13.112435,3.36723973 13.067,3.274 C13.028588,3.20226072 12.9716001,3.1421644 12.902,3.1 C12.8284858,3.05724872 12.7472756,3.02938578 12.663,3.018 C12.5663035,3.00404282 12.4686965,2.9973574 12.371,2.998 C12.141,2.998 11.96,3.047 11.828,3.146 C11.696,3.244 11.619,3.409 11.598,3.64 L10.428,3.64 L10.43,3.64 Z M13.13,4.504 C13.0756901,4.5506831 13.0123872,4.58573792 12.944,4.607 C12.8660953,4.63280656 12.786594,4.65351697 12.706,4.669 C12.6356901,4.6824557 12.5649915,4.69379415 12.494,4.703 L12.438,4.71 C12.3442925,4.7209764 12.2509205,4.73464873 12.158,4.751 C12.0700218,4.76746579 11.9831798,4.78951028 11.898,4.817 C11.8184644,4.84170189 11.7434829,4.87919266 11.676,4.928 C11.6127689,4.97492773 11.5608345,5.03540396 11.524,5.105 C11.4828498,5.1895753 11.4632678,5.28301921 11.467,5.377 C11.467,5.481 11.486,5.569 11.524,5.64 C11.563,5.712 11.614,5.768 11.681,5.81 C11.751612,5.85280173 11.8296287,5.88197317 11.911,5.896 C11.999,5.912 12.089,5.92 12.183,5.92 C12.413,5.92 12.592,5.882 12.718,5.805 C12.8336441,5.73877946 12.9301225,5.6436794 12.998,5.529 C13.0559377,5.42898627 13.0936525,5.31855994 13.109,5.204 C13.123,5.094 13.129,5.006 13.129,4.94 L13.129,4.504 L13.13,4.504 Z M18.068,3.829 L19.213,3.829 C19.203429,3.57947316 19.1356227,3.33564449 19.015,3.117 C18.9024476,2.9198478 18.7494249,2.7487623 18.566,2.615 C18.3773134,2.47837839 18.165618,2.37676456 17.941,2.315 C17.7037824,2.24816909 17.4584515,2.21451601 17.212,2.21499485 C16.866,2.21499485 16.559,2.273 16.29,2.388 C16.0300114,2.49712372 15.7969344,2.66160854 15.607,2.87 C15.42,3.076 15.279,3.32 15.183,3.603 C15.0848545,3.89900161 15.0362016,4.20916405 15.039,4.521 C15.039,4.839 15.091,5.131 15.195,5.397 C15.3877225,5.91765049 15.7938545,6.33106088 16.311,6.533 C16.577,6.641 16.869,6.694 17.187,6.694 C17.753,6.694 18.217,6.546 18.579,6.25 C18.941,5.953 19.161,5.522 19.237,4.957 L18.11,4.957 C18.071,5.22 17.976,5.43 17.825,5.587 C17.675,5.743 17.459,5.821 17.179,5.821 C17.0169172,5.82604274 16.8569353,5.78326499 16.719,5.698 C16.5947058,5.61799003 16.4914712,5.50926778 16.418,5.381 C16.3420174,5.246432 16.2880044,5.10059694 16.258,4.949 C16.1920994,4.63542499 16.1920994,4.31157501 16.258,3.998 C16.29,3.836 16.346,3.688 16.426,3.553 C16.506,3.419 16.608,3.309 16.735,3.223 C16.8749384,3.13431546 17.0384336,3.09004278 17.204,3.096 C17.704,3.096 17.992,3.34 18.068,3.829 L18.068,3.829 Z M21.344,2.331 L21.344,1.054 L20.174,1.054 L20.174,2.331 L19.467,2.331 L19.467,3.113 L20.175,3.113 L20.175,5.623 C20.175,5.838 20.211,6.011 20.282,6.143 C20.348856,6.26974234 20.4500515,6.3750965 20.574,6.447 C20.698,6.518 20.84,6.567 21.002,6.591 C21.164,6.616 21.336,6.628 21.517,6.628 C21.632,6.628 21.75,6.626 21.871,6.62 C21.991,6.615 22.101,6.604 22.201,6.587 L22.201,5.681 C22.0816045,5.70547047 21.9598509,5.71653898 21.838,5.714 C21.64,5.714 21.508,5.681 21.443,5.616 C21.377,5.55 21.344,5.418 21.344,5.22 L21.344,3.113 L22.2,3.113 L22.2,2.331 L21.344,2.331 L21.344,2.331 Z M26.414,3.154 L26.414,3.977 C26.556,3.977 26.706,3.981 26.862,3.99 C27.019,3.998 27.162,4.028 27.294,4.08 C27.426,4.132 27.534,4.216 27.62,4.331 C27.705,4.446 27.747,4.614 27.747,4.833 C27.747,5.113 27.657,5.334 27.475,5.496 C27.2918724,5.65856702 27.0537904,5.74543477 26.809,5.739 C26.6573848,5.74299582 26.5068689,5.71220848 26.369,5.649 C26.2489918,5.59188318 26.1431233,5.50889594 26.059,5.406 C25.9735024,5.29811138 25.9093573,5.17491208 25.87,5.043 C25.8256808,4.90032322 25.8007902,4.75232484 25.796,4.603 L24.684,4.603 C24.6733982,4.90631145 24.7226702,5.20873921 24.829,5.493 C24.93,5.75 25.074,5.968 25.261,6.147 C25.447,6.325 25.674,6.461 25.94,6.554 C26.206,6.647 26.501,6.694 26.825,6.694 C27.105,6.694 27.374,6.653 27.632,6.571 C27.8802687,6.49354848 28.1119012,6.37044071 28.315,6.208 C28.513,6.049 28.671,5.852 28.789,5.616 C28.9104753,5.36460477 28.9711084,5.08815894 28.966,4.809 C28.966,4.479 28.876,4.197 28.694,3.961 C28.5078662,3.72181335 28.2414636,3.55806455 27.944,3.5 L27.944,3.483 C28.214,3.406 28.415,3.261 28.55,3.047 C28.684,2.833 28.752,2.586 28.752,2.306 C28.752,2.048 28.694,1.82 28.579,1.623 C28.4650662,1.42656621 28.31229,1.25541601 28.13,1.12 C27.9425403,0.981312067 27.7319356,0.87702548 27.508,0.812 C27.2838797,0.744341653 27.0511093,0.709645045 26.817,0.709 C26.52,0.709 26.251,0.757 26.01,0.853 C25.5364377,1.03721692 25.1636928,1.41432574 24.985,1.89 C24.8861171,2.14931975 24.8320138,2.42355564 24.825,2.701 L25.935,2.701 C25.93,2.405 26.003,2.159 26.154,1.964 C26.305,1.769 26.529,1.672 26.825,1.672 C27.039,1.672 27.228,1.738 27.393,1.869 C27.558,2.001 27.64,2.191 27.64,2.438 C27.64,2.602 27.6,2.734 27.52,2.833 C27.4391855,2.93259619 27.334656,3.01030559 27.216,3.059 C27.0887112,3.11218118 26.953608,3.14426818 26.816,3.154 C26.6818904,3.16496371 26.5471096,3.16496371 26.413,3.154 L26.414,3.154 Z M31.434,3.598 C31.6998743,3.59181774 31.9508428,3.72050023 32.101,3.94 C32.173,4.042 32.226,4.157 32.261,4.286 C32.298,4.415 32.315,4.548 32.315,4.686 C32.315,4.817 32.296,4.946 32.258,5.072 C32.2216701,5.194371 32.1630166,5.30896567 32.085,5.41 C32.0099299,5.50734235 31.916074,5.5886161 31.809,5.649 C31.6939817,5.71117394 31.564708,5.74219963 31.434,5.739 C31.164872,5.74448889 30.9094158,5.62066514 30.747,5.406 C30.6664236,5.30244269 30.6051157,5.18524629 30.566,5.06 C30.5251813,4.93367062 30.5042646,4.80175995 30.504,4.669 C30.504,4.526 30.524,4.39 30.562,4.261 C30.6,4.132 30.658,4.018 30.735,3.92 C30.812885,3.82017354 30.912829,3.73973912 31.027,3.685 C31.154217,3.6252232 31.2934619,3.59545832 31.434,3.598 L31.434,3.598 Z M32.274,2.306 L33.386,2.306 C33.3589702,2.0677967 33.2891858,1.83642418 33.18,1.623 C33.0805021,1.43103264 32.9430583,1.26126913 32.776,1.124 C32.6070797,0.987485126 32.4145645,0.883093112 32.208,0.816 C31.9849489,0.743282653 31.7515979,0.707148712 31.517,0.709 C31.105,0.709 30.757,0.799 30.471,0.98 C30.1876447,1.15897838 29.9483609,1.3996295 29.771,1.684 C29.591,1.972 29.459,2.294 29.376,2.652 C29.2945312,3.00284388 29.2532655,3.36182153 29.253,3.722 C29.253,4.09 29.286,4.451 29.351,4.805 C29.417,5.159 29.535,5.475 29.706,5.755 C29.876,6.035 30.103,6.262 30.389,6.435 C30.674,6.608 31.034,6.695 31.467,6.695 C31.769,6.695 32.044,6.641 32.291,6.534 C32.7807448,6.32596024 33.161368,5.92286215 33.341,5.422 C33.5206636,4.93673912 33.5336812,4.40547794 33.378,3.912 C33.3085494,3.68995732 33.1934169,3.48489884 33.04,3.31 C32.8715046,3.12620425 32.6669084,2.97914009 32.439,2.878 C32.211689,2.77303862 31.9643737,2.71845868 31.714,2.718 C31.434,2.718 31.187,2.767 30.974,2.866 C30.759,2.965 30.573,3.129 30.414,3.36 L30.397,3.343 C30.403,3.184 30.425,3.003 30.463,2.8 C30.501,2.597 30.562,2.406 30.644,2.228 C30.7222712,2.05521162 30.8360774,1.90085773 30.978,1.775 C31.1225892,1.64996115 31.3089404,1.58391714 31.5,1.59 C31.6926416,1.5858542 31.8779979,1.66363113 32.01,1.804 C32.148,1.946 32.236,2.114 32.274,2.306 L32.274,2.306 Z M34.965,3.712 L34.965,3.602 L34.969,3.322 C34.9724412,3.17761946 34.9824516,3.03347033 34.999,2.89 C35.015,2.742 35.042,2.595 35.081,2.45 C35.119,2.304 35.173,2.174 35.241,2.059 C35.3066918,1.94690207 35.3969567,1.85116653 35.505,1.779 C35.6243078,1.70423652 35.7632926,1.66696491 35.904,1.672 C36.064,1.672 36.198,1.708 36.307,1.779 C36.417,1.85 36.507,1.944 36.579,2.059 C36.65,2.174 36.704,2.304 36.739,2.449 C36.8096497,2.73518863 36.8485511,3.02829044 36.855,3.323 L36.857,3.423 L36.859,3.681 L36.859,3.744 C36.858,3.896 36.852,4.074 36.843,4.278 C36.8327855,4.50602431 36.7982565,4.73230655 36.74,4.953 C36.682,5.17 36.589,5.355 36.46,5.509 C36.33,5.662 36.145,5.739 35.904,5.739 C35.668,5.739 35.487,5.662 35.361,5.509 C35.2299167,5.34577985 35.1357564,5.15609462 35.085,4.953 C35.0267435,4.73230655 34.9922145,4.50602431 34.982,4.278 C34.972,4.059 34.966,3.87 34.965,3.712 L34.965,3.712 Z M33.796,3.681 C33.796,3.121 33.853,2.651 33.965,2.269 C34.078,1.887 34.23,1.581 34.422,1.351 C34.614,1.121 34.838,0.956 35.093,0.857 C35.348,0.758 35.619,0.709 35.904,0.709 C36.194,0.709 36.468,0.758 36.724,0.857 C36.978,0.956 37.204,1.12 37.398,1.351 C37.593,1.581 37.747,1.887 37.859,2.269 C37.972,2.65 38.029,3.121 38.029,3.681 C38.029,4.257 37.972,4.739 37.859,5.126 C37.747,5.513 37.593,5.821 37.399,6.052 C37.203,6.282 36.979,6.447 36.723,6.546 C36.4615788,6.64583415 36.1838281,6.69602597 35.904,6.69405897 C35.619,6.69405897 35.348,6.644 35.093,6.546 C34.8305125,6.44188575 34.5993767,6.27172021 34.422,6.052 C34.23,5.822 34.078,5.512 33.965,5.126 C33.853,4.739 33.796,4.257 33.796,3.681 L33.796,3.681 Z" id="Shape" fill="#000000"></path>
                        <path d="M34.965,3.712 L34.965,3.602 L34.969,3.322 C34.9724412,3.17761946 34.9824516,3.03347033 34.999,2.89 C35.015,2.742 35.042,2.595 35.081,2.45 C35.119,2.304 35.173,2.174 35.241,2.059 C35.3066918,1.94690207 35.3969567,1.85116653 35.505,1.779 C35.6243078,1.70423652 35.7632926,1.66696491 35.904,1.672 C36.064,1.672 36.198,1.708 36.307,1.779 C36.417,1.85 36.507,1.944 36.579,2.059 C36.65,2.174 36.704,2.304 36.739,2.449 C36.8096497,2.73518863 36.8485511,3.02829044 36.855,3.323 L36.857,3.423 L36.859,3.681 L36.859,3.744 C36.858,3.896 36.852,4.074 36.843,4.278 C36.8327855,4.50602431 36.7982565,4.73230655 36.74,4.953 C36.682,5.17 36.589,5.355 36.46,5.509 C36.33,5.662 36.145,5.739 35.904,5.739 C35.668,5.739 35.487,5.662 35.361,5.509 C35.2299167,5.34577985 35.1357564,5.15609462 35.085,4.953 C35.0267435,4.73230655 34.9922145,4.50602431 34.982,4.278 C34.972,4.059 34.966,3.87 34.965,3.712 L34.965,3.712 Z" id="Path" fill="#FFFFFF"></path>
                    </g>
                </g>
            </g>
        </g>
    </g>
</svg>