<?xml version="1.0" encoding="UTF-8"?>
<svg width="36px" height="50px" viewBox="0 0 36 50" version="1.1" xmlns="http://www.w3.org/2000/svg" xmlns:xlink="http://www.w3.org/1999/xlink">
    <title>cc3</title>
    <g id="Page-1" stroke="none" stroke-width="1" fill="none" fill-rule="evenodd">
        <g id="AR/VR-Page-V2" transform="translate(-492.000000, -2487.000000)" fill-rule="nonzero">
            <g id="Group-4" transform="translate(332.000000, 2487.000000)">
                <g id="cc3" transform="translate(160.000000, 0.000000)">
                    <polygon id="Path" fill="#4A4A4C" points="0 9.737 3.195 45.562 17.527 49.542 31.902 45.557 35.097 9.737"></polygon>
                    <polyline id="Path" fill="#4A4A4C" points="29.164 43.276 31.897 12.666 17.549 12.666 17.549 46.496"></polyline>
                    <polygon id="Path" fill="#000000" points="18.472 0 18.472 1.808 20.387 4.52 18.62 4.52 18.62 6.682 23.924 6.682 23.924 4.622 22.157 2.358 23.924 2.358 23.924 0"></polygon>
                    <path d="M18.344,17.06 L18.344,21.453 L28.167,21.239 L28.541,17.059 M26.564,25.954 L18.344,25.954 L18.344,30.347 L23.948,29.981 L23.441,35.867 L18.345,37.149 L18.345,41.716 L26.541,39.443 L26.607,38.701 L27.64,27.133 L27.746,25.953" id="Shape" fill="#4A4A4C"></path>
                    <path d="M21.973,28.207 L18.344,28.207 L18.344,19.257 L22.376,19.257 M16.611,37.117 L10.927,35.504 L10.745,33.045 L7.913,32.544 L8.528,39.443 L16.611,41.686" id="Shape" fill="#4A4A4C"></path>
                    <polyline id="Path" fill="#4A4A4C" points="16.611 17.06 12.88 17.06 13.655 39.576 16.612 39.576"></polyline>
                    <path d="M14.313,0 L14.313,4.473 L13.407,4.473 L13.407,3.64 L11.174,3.64 L11.174,6.682 L16.547,6.682 L16.547,0 L14.313,0 Z M0,9.737 L3.195,45.562 L17.527,49.542 L31.902,45.557 L35.097,9.737 L0,9.737 Z" id="Shape" fill="#000000"></path>
                    <polyline id="Path" fill="#4A4A4A" points="29.164 43.276 31.897 12.666 17.549 12.666 17.549 46.496"></polyline>
                    <polygon id="Path" fill="#000000" points="18.472 0 18.472 1.808 20.387 4.52 18.62 4.52 18.62 6.682 23.924 6.682 23.924 4.622 22.157 2.358 23.924 2.358 23.924 0"></polygon>
                    <path d="M18.344,17.06 L18.344,21.453 L28.167,21.239 L28.541,17.059 M26.564,25.954 L18.344,25.954 L18.344,30.347 L23.948,29.981 L23.441,35.867 L18.345,37.149 L18.345,41.716 L26.541,39.443 L26.607,38.701 L27.64,27.133 L27.746,25.953" id="Shape" fill="#FEFEFE"></path>
                    <polyline id="Path" fill="#FEFEFE" points="21.973 28.207 18.344 28.207 18.344 19.257 22.376 19.257"></polyline>
                    <polyline id="Path" fill="#EAEAEB" points="16.611 37.117 10.927 35.504 10.745 33.045 7.913 32.544 8.528 39.443 16.611 41.686"></polyline>
                    <polyline id="Path" fill="#EAEAEB" points="16.611 17.06 12.88 17.06 13.655 39.576 16.612 39.576"></polyline>
                    <polygon id="Path" fill="#000000" points="14.313 0 14.313 4.473 13.407 4.473 13.407 3.64 11.174 3.64 11.174 6.682 16.547 6.682 16.547 0"></polygon>
                </g>
            </g>
        </g>
    </g>
</svg>