<?xml version="1.0" encoding="UTF-8"?>
<svg width="120px" height="16px" viewBox="0 0 120 16" version="1.1" xmlns="http://www.w3.org/2000/svg" xmlns:xlink="http://www.w3.org/1999/xlink">
    <!-- Generator: Sketch 56.2 (81672) - https://sketch.com -->
    <title>Group 7 Copy</title>
    <desc>Created with Sketch.</desc>
    <g id="Page-1" stroke="none" stroke-width="1" fill="none" fill-rule="evenodd">
        <g id="Menu_hover" transform="translate(-126.000000, -37.000000)">
            <g id="Group-7-Copy" transform="translate(126.000000, 37.000000)">
                <path d="M39.2242987,0.715841421 L48.3081937,0.715841421 L48.3081937,3.10695061 L45.1316474,3.10695061 L45.1316474,14.833825 L42.3793034,14.833825 L42.3793034,3.10695061 L39.2242987,3.10695061 L39.2242987,0.715841421 Z M50.2280406,0.679552237 L54.2894465,0.679552237 C55.8255229,0.679552237 57.0683031,1.03912999 57.8686536,1.69531796 C58.7303145,2.39458897 59.2572534,3.60091433 59.2572534,4.87186426 C59.2572534,6.33337383 58.6458055,7.58278223 57.6151264,8.25885469 C57.1097291,8.57700643 56.816433,8.70294149 56.0591655,8.85207512 L60.4784921,14.8008499 L57.0898446,14.8008499 L53.3001934,9.12714382 L52.9638142,9.12714382 L52.9638142,14.8008499 L50.2280406,14.8008499 L50.2280406,0.679552237 Z M52.9638142,2.92318484 L52.9638142,7.17846439 L53.7442802,7.17846439 C55.4908007,7.17846439 56.4369707,6.43776737 56.4369707,5.04088237 C56.4369707,3.64399738 55.5322267,2.92318484 53.7840492,2.92318484 L52.9638142,2.92318484 Z M62.0425725,0.715841421 L69.8919725,0.715841421 L69.8919725,3.10695061 L64.8081728,3.10695061 L64.8081728,6.56685081 L69.6997558,6.56685081 L69.6997558,8.95961704 L64.8081728,8.95961704 L64.8081728,12.4427158 L69.8919725,12.4427158 L69.8919725,14.833825 L62.0425725,14.833825 L62.0425725,0.715841421 Z M13.5709946,0.715841421 L21.4187375,0.715841421 L21.4187375,3.10695061 L16.3349378,3.10695061 L16.3349378,6.56685081 L21.2281779,6.56685081 L21.2281779,8.95961704 L16.3349378,8.95961704 L16.3349378,12.4427158 L21.4187375,12.4427158 L21.4187375,14.833825 L13.5709946,14.833825 L13.5709946,0.715841421 Z M72.0714776,0.715841421 L75.1419733,0.715841421 L83.9889116,14.833825 L80.9830405,14.833825 L72.0714776,0.715841421 Z M80.5240403,0.715841421 L83.6260198,0.715841421 L80.224116,6.0283127 L78.6847256,3.60903383 L80.5240403,0.715841421 Z M71.6353446,14.8339907 L75.4150536,8.86698848 L76.9411877,11.2580977 L74.6594432,14.8339907 L71.6353446,14.8339907 Z M34.8405985,0.715841421 L36.6948266,0.715841421 L39.0063978,14.9365615 L36.2772524,14.9365615 L35.0477285,6.32989404 L31.2149942,15.1254641 L30.466012,15.1254641 L26.7790973,6.32989404 L25.3838693,14.9365615 L22.6547239,14.9365615 L25.2380498,0.715841421 L27.0922779,0.715841421 L30.8819291,9.84779065 L34.8405985,0.715841421 Z M0.0144162508,8.67659455 L4.01782568,8.67659455 C4.38734567,10.4811115 5.84554116,11.7122924 7.88204372,11.7122924 C9.12482396,11.7122924 10.3659472,11.1124438 11.1629836,10.1662738 L11.1629836,14.7032502 C9.90031883,15.0893406 8.98894665,15.3793227 7.80416282,15.3793227 C5.76600322,15.3793227 3.825609,14.6071419 2.31273118,13.2367695 C0.940701793,12.0039315 0.203318848,10.4463136 0.0144162508,8.67659455 Z" id="Combined-Shape" fill="#FFFFFF"></path>
                <path d="M2.09947009,2.37453879 C3.52286773,0.894801776 5.58256886,-2.66453526e-15 7.62072846,-2.66453526e-15 C8.83202493,-2.66453526e-15 9.94887011,0.273411654 11.0640583,0.740697025 L11.0640583,5.31081424 C10.2951915,4.26190772 9.0441261,3.69685697 7.75660576,3.69685697 C5.47320419,3.69685697 3.92718557,5.44834859 3.89238772,7.68866711 L-2.84217094e-14,7.68866711 L-2.84217094e-14,6.98608201 C0.165704033,5.25778895 0.891487695,3.63057535 2.09947009,2.37453879" id="Fill-20" fill="#59C82A"></path>
                <g id="Group-5" transform="translate(85.487834, 0.661343)">
                    <path d="M0.898595646,13.2740824 L4.49319341,13.2740824 L4.49319341,14.1165158 L7.10542736e-13,14.1165158 L7.10542736e-13,-3.83693077e-13 L0.898595646,-3.83693077e-13 L0.898595646,13.2740824 Z M10.7788583,2.21067175 L8.09685146,8.80707132 L13.4427448,8.80707132 L10.7788583,2.21067175 Z M7.77089505,9.62248303 L5.94054049,14.1165158 L5.05243946,14.1165158 L10.7788583,-3.83693077e-13 L16.4871568,14.1165158 L15.599264,14.1165158 L13.7689095,9.62248303 L7.77089505,9.62248303 Z M18.2909912,13.2740824 L20.4440918,13.2740824 C21.4362912,13.2740824 22.465932,13.3115239 23.3270862,12.7311809 C24.1884555,12.1506227 24.7126363,11.2707478 24.7126363,10.222171 C24.7126363,9.19253017 24.2071763,8.16288933 23.2524184,7.69487076 C22.3912642,7.26429368 21.2116423,7.24557294 20.2756051,7.24557294 L18.2909912,7.24557294 L18.2909912,13.2740824 Z M18.2909912,6.40292434 L19.8450281,6.40292434 C20.7997859,6.40292434 21.5673364,6.45930175 22.3725435,5.87895873 C23.1775354,5.29861571 23.4209051,4.58701231 23.4209051,3.61331851 C23.4209051,2.6962173 23.065211,1.79740647 22.2600039,1.29194642 C21.5486156,0.84286378 20.6687407,0.84286378 19.8450281,0.84286378 L18.2909912,0.84286378 L18.2909912,6.40292434 Z M17.3923956,14.1165158 L17.3923956,-2.68229883e-13 L20.2194429,-2.68229883e-13 C21.2865252,-2.68229883e-13 22.2974454,0.0750981515 23.1398788,0.823927857 C24.0012481,1.57275756 24.3195007,2.62111915 24.3195007,3.74457889 C24.3195007,5.03652531 23.8140407,5.991068 22.6905809,6.62757325 C24.4318252,6.98348254 25.6114472,8.38753824 25.6114472,10.1849447 C25.6114472,11.32691 25.1808701,12.3565509 24.30078,13.1055957 C23.3083655,13.9480292 22.2600039,14.1165158 21.0057141,14.1165158 L17.3923956,14.1165158 Z M33.191269,2.6470043 C32.5712097,1.66220422 31.6958318,1.02390788 30.4007925,1.02390788 C28.9235924,1.02390788 27.811133,2.20931537 27.811133,3.65004141 C27.811133,5.09097707 29.1789109,5.69279934 30.2913702,6.22167345 L32.9177134,7.58945133 C33.9572246,8.24619434 34.4863083,9.0850981 34.4863083,10.3252167 C34.4863083,12.6050561 32.4070763,14.3195474 30.1821576,14.3195474 C28.267059,14.3195474 26.7714122,13.1339303 26.1331159,11.3649375 L26.8990715,11.0184338 C27.4828663,12.4773969 28.558642,13.4988806 30.2184221,13.4988806 C32.0240985,13.4988806 33.6107209,12.0759724 33.6107209,10.2522686 C33.6107209,8.7021203 32.0240985,8.04558691 30.8384814,7.46200168 L28.3580346,6.1487253 C27.4463923,5.5833771 26.9355456,4.78094741 26.9355456,3.68651549 C26.9355456,1.64396718 28.3947183,0.203031527 30.4555036,0.203031527 C31.8417281,0.203031527 33.1547949,0.950750102 33.8115379,2.1361576 L33.191269,2.6470043 Z" id="Combined-Shape" fill="#ABABAB"></path>
                    <g id="Group-6" transform="translate(17.380392, 0.000000)"></g>
                    <g id="Group-29" transform="translate(25.931018, 0.203032)"></g>
                </g>
            </g>
        </g>
    </g>
</svg>