<?xml version="1.0" encoding="UTF-8"?>
<svg width="33px" height="30px" viewBox="0 0 33 30" version="1.1" xmlns="http://www.w3.org/2000/svg" xmlns:xlink="http://www.w3.org/1999/xlink">
    <title>circle-vol-1circle copy</title>
    <g id="Page-1" stroke="none" stroke-width="1" fill="none" fill-rule="evenodd">
        <g id="Web-Development-Page-" transform="translate(-537.000000, -3838.000000)" fill-rule="nonzero">
            <g id="circle-vol-1circle-copy" transform="translate(537.257053, 3838.000000)">
                <path d="M15.5749429,9.03847508 C18.068441,9.03847508 20.0967005,7.01084384 20.0967005,4.51923754 C20.0967005,2.02763124 18.068441,0 15.5749429,0 C13.0814448,0 11.0531853,2.02763124 11.0531853,4.51923754 C11.0531853,7.01084384 13.0814448,9.03847508 15.5749429,9.03847508 Z M15.5749429,1.00427501 C17.5137721,1.00427501 19.0918655,2.58098677 19.0918655,4.51923754 C19.0918655,6.45748831 17.5137721,8.03420007 15.5749429,8.03420007 C13.6361137,8.03420007 12.0580203,6.45748831 12.0580203,4.51923754 C12.0580203,2.58098677 13.6361137,1.00427501 15.5749429,1.00427501 Z" id="Shape" fill="#000000"></path>
                <path d="M9.97951905,25.8625922 C10.0699542,25.708436 10.0714615,25.5181258 9.98353839,25.3629653 L5.46178078,17.3287653 C5.28392498,17.0124186 4.76392285,17.0124186 4.58656947,17.3287653 L0.0648118591,25.3629653 C-0.0231112056,25.518628 -0.021603953,25.708436 0.0688311992,25.8625922 C0.159266351,26.0167484 0.324059295,26.1111502 0.502417512,26.1111502 L9.54593273,26.1111502 C9.72479337,26.1111502 9.88958631,26.0167484 9.97951905,25.8625922 Z M1.36155146,25.1068752 L5.02417512,18.5991732 L8.68679879,25.1068752 L1.36155146,25.1068752 Z" id="Shape" fill="#000000"></path>
                <path d="M31.6523033,17.5748127 C31.6523033,17.2976328 31.4272202,17.0726751 31.1498858,17.0726751 L23.1112056,17.0726751 C22.8338711,17.0726751 22.6087881,17.2976328 22.6087881,17.5748127 L22.6087881,25.6090127 C22.6087881,25.8861926 22.8338711,26.1111502 23.1112056,26.1111502 L31.1498858,26.1111502 C31.4272202,26.1111502 31.6523033,25.8861926 31.6523033,25.6090127 L31.6523033,17.5748127 Z M30.6474683,25.1068752 L23.6136231,25.1068752 L23.6136231,18.0769502 L30.6474683,18.0769502 L30.6474683,25.1068752 Z" id="Shape" fill="#000000"></path>
                <path d="M15.5749429,28.6218378 C13.2422184,28.6218378 10.9798323,27.9549991 9.03095478,26.6941319 L8.48432453,27.5372207 C10.5964878,28.904039 13.0482852,29.6261128 15.5749429,29.6261128 C18.1975623,29.6261128 20.7272345,28.8523189 22.8906443,27.3880859 L22.3274342,26.5565462 C20.3308271,27.9077982 17.9960929,28.6218378 15.5749429,28.6218378 Z" id="Path" fill="#000000"></path>
                <path d="M27.6239197,16.0879835 L28.6277499,16.0488168 C28.4393433,11.2544079 25.6398729,6.96113222 21.3225992,4.84361837 L20.8799694,5.74545733 C24.8651451,7.69977649 27.4495808,11.6631478 27.6239197,16.0879835 Z" id="Path" fill="#000000"></path>
                <path d="M3.55510632,17.5351438 C3.52998544,17.218295 3.51692259,16.8939142 3.51692259,16.5705376 C3.51692259,11.9363106 6.10437278,7.78815269 10.269414,5.74545733 L9.82728654,4.84361837 C5.31507486,7.05704049 2.51208756,11.5501669 2.51208756,16.5705376 C2.51208756,16.9205275 2.52565283,17.2715216 2.5532858,17.6149837 L3.55510632,17.5351438 Z" id="Path" fill="#000000"></path>
                <path d="M20.0967005,16.0684001 C20.0967005,14.4600537 19.2305327,12.960169 17.8363241,12.1542383 L17.3329018,13.0234383 C18.4176212,13.6506081 19.0918655,14.8170735 19.0918655,16.0684001 C19.0918655,17.7058705 17.9634357,19.0817273 16.4446276,19.4703817 L17.0294416,18.3019078 L16.1306167,17.8524947 L15.1257816,19.8610447 C15.0293175,20.0543677 15.0669988,20.2878616 15.2202361,20.4405114 L16.7274887,21.9469239 L17.437907,21.2369015 L16.6531309,20.4525627 C18.6266269,19.9674979 20.0967005,18.1884247 20.0967005,16.0684001 Z" id="Path" fill="#59C82A"></path>
                <path d="M13.3150689,19.9835663 L13.8174864,19.1143662 C12.7322646,18.4871965 12.0580203,17.3202289 12.0580203,16.0684001 C12.0580203,14.4309297 13.18645,13.055073 14.7052582,12.6664185 L14.1204442,13.8348925 L15.0192691,14.2843056 L16.0241041,12.2757556 C16.1205683,12.0824326 16.082887,11.8489387 15.9296496,11.6962889 L14.4223971,10.1898764 L13.7119787,10.8998988 L14.4967549,11.6842376 C12.5237613,12.1693024 11.0531853,13.9483756 11.0531853,16.0684001 C11.0531853,17.6777508 11.9198555,19.1776356 13.3150689,19.9835663 Z" id="Path" fill="#59C82A"></path>
            </g>
        </g>
    </g>
</svg>