<?xml version="1.0" encoding="UTF-8"?>
<svg width="30px" height="30px" viewBox="0 0 30 30" version="1.1" xmlns="http://www.w3.org/2000/svg" xmlns:xlink="http://www.w3.org/1999/xlink">
    <title>management copy</title>
    <g id="Page-1" stroke="none" stroke-width="1" fill="none" fill-rule="evenodd">
        <g id="Web-Development-Page-" transform="translate(-289.000000, -3838.000000)" fill-rule="nonzero">
            <g id="management-copy" transform="translate(289.000000, 3838.000000)">
                <polygon id="Path" fill="#000000" points="14.3908219 26.6757945 15.3748098 26.6757945 15.3748098 27.6592339 14.3908219 27.6592339"></polygon>
                <polygon id="Path" fill="#000000" transform="translate(23.575213, 23.567142) rotate(-45.000000) translate(-23.575213, -23.567142) " points="23.0832931 23.0752228 24.0668582 23.075497 24.0671324 24.0590621 23.0835673 24.0587879"></polygon>
                <polygon id="Path" fill="#000000" points="26.6906698 14.3828016 27.6746576 14.3828016 27.6746576 15.3662411 26.6906698 15.3662411"></polygon>
                <path d="M29.1506393,11.4324833 L25.6624025,11.4324833 C25.4720457,10.8325311 25.2309176,10.2498692 24.9416314,9.69081212 L27.4070129,7.22631291 C27.5990784,7.03429644 27.5990784,6.72303771 27.4070129,6.53102124 L25.3194827,4.44514621 C21.6030846,0.659443857 16.1393946,-0.840995602 11.0093278,0.515289085 C5.87926101,1.87157377 1.87251614,5.87580243 0.515112381,11.0029142 C-0.842291378,16.130026 0.658598413,21.590777 4.44614899,25.3053716 L6.53318716,27.3917384 C6.72531071,27.5836969 7.03674301,27.5836969 7.22886656,27.3917384 L9.69474005,24.9277309 C10.2546118,25.2167385 10.8380929,25.4575679 11.4388585,25.6476086 L11.4388585,29.134393 C11.4388585,29.4059623 11.6591316,29.6261128 11.9308524,29.6261128 L17.8347793,29.6261128 C18.1065001,29.6261128 18.3267732,29.4059623 18.3267732,29.134393 L18.3267732,25.6481003 C18.9270344,25.4579813 19.5100186,25.2171532 20.0694157,24.9282226 L22.5352892,27.3922301 C22.7274127,27.5841886 23.038845,27.5841886 23.2309686,27.3922301 L27.4055369,23.2199883 C27.5976024,23.0279719 27.5976024,22.7167131 27.4055369,22.5246967 L24.9401554,20.0601974 C25.2298557,19.5005282 25.4713141,18.9172055 25.6619105,18.3165593 L29.1506393,18.3165593 C29.4223601,18.3165593 29.6426332,18.0964089 29.6426332,17.8248396 L29.6426332,11.9242031 C29.6426332,11.6526338 29.4223601,11.4324833 29.1506393,11.4324833 L29.1506393,11.4324833 Z M5.14133639,5.13847101 C10.3849006,-0.10383594 18.840703,-0.253839849 24.2671077,4.79918441 L23.5724123,5.49349264 C18.5272496,0.840107592 10.7063356,0.996833762 5.85186262,5.84860125 C0.997389628,10.7003687 0.840576063,18.516924 5.49655599,23.5592749 L4.80186059,24.2535832 C-0.253981399,18.8302027 -0.103893843,10.3791129 5.14133639,5.13847101 L5.14133639,5.13847101 Z M19.0573842,10.7022796 C21.331001,13.0119449 21.3158863,16.7218395 19.0235252,19.012923 C16.7311641,21.3040065 13.0192008,21.3191128 10.7082475,19.0467631 C10.516124,18.8548046 10.2046917,18.8548046 10.0125681,19.0467631 L6.19272738,22.864475 C1.90525311,18.2087567 2.05464762,11.0019845 6.53138357,6.52774349 C11.0081195,2.05350252 18.2189104,1.90419127 22.8772249,6.18927604 L19.0573842,10.0064962 C18.964999,10.0987272 18.913089,10.2238809 18.913089,10.3543879 C18.913089,10.4848948 18.964999,10.6100486 19.0573842,10.7022796 L19.0573842,10.7022796 Z M28.6586454,17.3331199 L25.295375,17.3331199 C25.0743289,17.3329915 24.8803332,17.4802174 24.8210929,17.6930587 C24.6049846,18.4643915 24.2976142,19.2072156 23.9054922,19.9057975 C23.7968521,20.0984615 23.8302709,20.3399086 23.9871632,20.4958611 L26.3630018,22.8708673 L22.8846048,26.3473257 L20.5082742,23.9728112 C20.3522348,23.8160064 20.110653,23.7826062 19.9178816,23.8911857 C19.2189102,24.2830892 18.4756718,24.5902883 17.7039089,24.8062761 C17.4909489,24.8654834 17.343641,25.059371 17.3437694,25.2802939 L17.3437694,28.6426733 L12.4228463,28.6426733 L12.4228463,25.2812774 C12.4229747,25.0603545 12.2756668,24.8664669 12.0627067,24.8072596 C11.2909439,24.5912717 10.5477055,24.2840727 9.84873414,23.8921692 C9.65596271,23.7835896 9.4143809,23.8169898 9.25834145,23.9737946 L6.88201085,26.3483091 L5.49065206,24.9577258 L10.3736916,20.0778994 C13.104792,22.4410145 17.1985648,22.2938918 19.7527898,19.7408318 C22.3070148,17.1877718 22.4538049,13.0962657 20.0890954,10.3669267 L24.971643,5.48660857 L26.3630018,6.87719192 L23.9871632,9.25219814 C23.8302709,9.40815063 23.7968521,9.64959779 23.9054922,9.84226179 C24.297686,10.5408088 24.60506,11.2836417 24.8210929,12.0550005 C24.8803332,12.2678419 25.0743289,12.4150677 25.295375,12.4149393 L28.6586454,12.4149393 L28.6586454,17.3331199 Z" id="Shape" fill="#000000"></path>
                <path d="M15.3748098,12.9774667 L15.3748098,7.49872564 C15.3748098,7.22715634 15.1545366,7.00700592 14.8828159,7.00700592 C14.6110951,7.00700592 14.3908219,7.22715634 14.3908219,7.49872564 L14.3908219,12.9774667 C13.7023677,13.1573822 13.1647192,13.6947311 12.9847033,14.3828016 L9.47088282,14.3828016 C9.19916208,14.3828016 8.9788889,14.602952 8.9788889,14.8745213 C8.9788889,15.1460906 9.19916208,15.3662411 9.47088282,15.3662411 L12.9847033,15.3662411 C13.2226473,16.2942695 14.0961091,16.9150732 15.0513083,16.8350585 C16.0065075,16.7550438 16.764387,15.9975867 16.8444463,15.0429199 C16.9245056,14.088253 16.3033557,13.2152781 15.3748098,12.9774667 L15.3748098,12.9774667 Z M14.8828159,15.8579608 C14.3393744,15.8579608 13.898828,15.4176599 13.898828,14.8745213 C13.898828,14.3313827 14.3393744,13.8910819 14.8828159,13.8910819 C15.4262573,13.8910819 15.8668037,14.3313827 15.8668037,14.8745213 C15.8668037,15.4176599 15.4262573,15.8579608 14.8828159,15.8579608 Z" id="Shape" fill="#59C82A"></path>
                <path d="M14.8828159,5.53184678 C14.6110951,5.53184678 14.3908219,5.31169637 14.3908219,5.04012707 L14.3908219,4.05668764 C14.3908219,3.78511834 14.6110951,3.56496793 14.8828159,3.56496793 C15.1545366,3.56496793 15.3748098,3.78511834 15.3748098,4.05668764 L15.3748098,5.04012707 C15.3748098,5.31169637 15.1545366,5.53184678 14.8828159,5.53184678 Z" id="Path" fill="#000000"></path>
                <path d="M19.802755,6.84965585 C19.6270726,6.84947562 19.4648172,6.75568327 19.377054,6.60357759 C19.2892908,6.4514719 19.2893389,6.26413667 19.3771802,6.11207604 L19.8691742,5.25992578 C20.0059513,5.0267456 20.3053991,4.94762052 20.5396115,5.08277169 C20.7738238,5.21792286 20.8549776,5.51667233 20.7213076,5.75164549 L20.2293137,6.60379576 C20.1413419,6.75608274 19.9786988,6.84982694 19.802755,6.84965585 Z" id="Path" fill="#000000"></path>
                <path d="M9.96287673,6.84965585 C9.78693295,6.84982694 9.62428985,6.75608274 9.53631801,6.60379576 L9.04432409,5.75164549 C8.91065412,5.51667233 8.99180789,5.21792286 9.22602025,5.08277169 C9.4602326,4.94762052 9.7596804,5.0267456 9.89645755,5.25992578 L10.3884515,6.11207604 C10.4762928,6.26413667 10.4763409,6.4514719 10.3885777,6.60357759 C10.3008145,6.75568327 10.1385591,6.84947562 9.96287673,6.84965585 L9.96287673,6.84965585 Z" id="Path" fill="#000000"></path>
                <path d="M6.36098929,10.449045 C6.2746007,10.4492267 6.18971148,10.4264891 6.11499234,10.3831535 L5.26236689,9.89143376 C5.02905668,9.75473285 4.94988748,9.45545193 5.08511401,9.22137011 C5.22034054,8.98728829 5.51925661,8.90617975 5.7543608,9.03977522 L6.60698625,9.53149493 C6.79981896,9.64277796 6.89382896,9.86962906 6.83619684,10.0845922 C6.77856473,10.2995554 6.58365986,10.449045 6.36098929,10.449045 Z" id="Path" fill="#000000"></path>
                <path d="M5.0429376,15.3662411 L4.05894978,15.3662411 C3.78722904,15.3662411 3.56695587,15.1460906 3.56695587,14.8745213 C3.56695587,14.602952 3.78722904,14.3828016 4.05894978,14.3828016 L5.0429376,14.3828016 C5.31465834,14.3828016 5.53493152,14.602952 5.53493152,14.8745213 C5.53493152,15.1460906 5.31465834,15.3662411 5.0429376,15.3662411 Z" id="Path" fill="#000000"></path>
                <path d="M5.50934783,20.775159 C5.28667726,20.775159 5.0917724,20.6256694 5.03414029,20.4107062 C4.97650817,20.1957431 5.07051816,19.968892 5.26335088,19.8576089 L6.11597633,19.3658892 C6.26828309,19.2766498 6.45675565,19.2758144 6.60984838,19.3637001 C6.76294112,19.4515859 6.8571804,19.6147174 6.85679347,19.7911686 C6.85640415,19.9676198 6.76144813,20.1303356 6.60797024,20.2175478 L5.75534479,20.7092675 C5.68062565,20.7526031 5.59573643,20.7753407 5.50934783,20.775159 L5.50934783,20.775159 Z" id="Path" fill="#000000"></path>
                <path d="M14.8828159,19.7917374 C13.577199,19.7953484 12.3246273,19.2756827 11.4054029,18.3490128 C11.2776927,18.2253712 11.2266673,18.0424817 11.2719372,17.8706332 C11.3172071,17.6987848 11.4517277,17.5647189 11.6237993,17.5199606 C11.795871,17.4752023 11.9787175,17.5267163 12.1020663,17.6547046 C13.0921194,18.6654465 14.5491313,19.0667039 15.9174496,18.7054516 C17.285768,18.3441993 18.3544286,17.2761343 18.7158823,15.9085785 C19.0773361,14.5410227 18.675855,13.0848229 17.6645494,12.0953215 C17.5364898,11.9720415 17.484947,11.7892969 17.5297303,11.6173212 C17.5745136,11.4453454 17.7086542,11.3108998 17.8805985,11.2656551 C18.0525427,11.2204105 18.2355343,11.2714074 18.3592448,11.3990464 C19.7649389,12.8051751 20.185341,14.9188455 19.424604,16.7553901 C18.6638669,18.5919347 16.8716288,19.7901023 14.8828159,19.7917374 Z" id="Path" fill="#000000"></path>
            </g>
        </g>
    </g>
</svg>