<?xml version="1.0" encoding="UTF-8"?>
<svg width="25px" height="30px" viewBox="0 0 25 30" version="1.1" xmlns="http://www.w3.org/2000/svg" xmlns:xlink="http://www.w3.org/1999/xlink">
    <title>people copy</title>
    <g id="Page-1" stroke="none" stroke-width="1" fill="none" fill-rule="evenodd">
        <g id="Web-Development-Page-" transform="translate(-784.000000, -3838.000000)" fill-rule="nonzero">
            <g id="people-copy" transform="translate(784.278997, 3838.000000)">
                <path d="M18.0504679,7.26968101 C17.9786017,7.2655727 16.844254,7.21106528 15.6183932,7.62102819 C15.2555008,5.73566172 13.7521137,4.3587997 13.6797306,4.29347181 C13.3525126,3.99831009 12.8573198,3.99831009 12.5300445,4.29347181 C12.4576613,4.3587997 10.9543317,5.73566172 10.5913818,7.62102819 C9.36557848,7.21112315 8.23134563,7.26568843 8.15930714,7.26968101 C7.72075702,7.29404154 7.37056033,7.64677745 7.34637515,8.08850742 C7.34028578,8.19972107 7.21568331,10.8306588 8.82115361,12.4478279 C10.3881344,14.0261128 12.929703,14.0535979 13.0998035,14.0535979 L13.1044567,14.0535979 L13.1052609,14.0535979 L13.1099141,14.0535979 C13.2803018,14.0535979 15.821698,14.0260549 17.388564,12.4478279 C18.9940343,10.8306588 18.8694318,8.19972107 18.863285,8.08856528 C18.8392147,7.64677745 18.489018,7.29404154 18.0504679,7.26968101 Z M11.268624,9.98261128 C11.8712427,10.5895994 12.1031561,11.5238635 12.1909925,12.2188042 C11.526963,12.0970015 10.6405564,11.8253902 10.0398335,11.2203116 C9.43767442,10.6137285 9.20570358,9.71678635 9.11769483,9.05500148 C9.77597959,9.14428487 10.6685331,9.37816914 11.268624,9.98261128 L11.268624,9.98261128 Z M14.0203336,12.2200772 C14.1089168,11.523632 14.3411749,10.5869955 14.9412084,9.98261128 C15.5434824,9.37597033 16.4338529,9.14243323 17.0909313,9.05378635 C17.002348,9.71678635 16.7702049,10.6157537 16.169999,11.2202537 C15.5670356,11.8276469 14.6830418,12.098911 14.0203336,12.2200772 L14.0203336,12.2200772 Z M12.2360309,8.4263724 C12.2360309,7.56802522 12.7022705,6.76812018 13.1048588,6.23745401 C13.5077918,6.7684095 13.9738016,7.56808309 13.9738016,8.4263724 C13.9738016,8.45964392 13.9718484,8.49262611 13.9704696,8.52566617 C13.8856205,8.59799555 13.8027819,8.67431751 13.7225285,8.75509496 C13.478896,9.00049407 13.2753039,9.27198961 13.1049162,9.55621513 C12.9345285,9.27198961 12.7309365,9.00049407 12.4873039,8.75509496 C12.4070505,8.67425964 12.324212,8.59799555 12.2393628,8.52560831 C12.2379841,8.49262611 12.2360309,8.45964392 12.2360309,8.4263724 L12.2360309,8.4263724 Z" id="Shape" fill="#59C82A"></path>
                <path d="M13.2250378,0 C6.90581439,0 1.76477072,5.17832047 1.76477072,11.5433056 L1.76477072,13.0597344 L0.0540001458,18.7583056 C-0.0799087264,19.2042596 0.159645112,19.6771202 0.596701611,19.8296484 L3.5123648,20.847178 L3.5123648,24.9272493 C3.5123648,25.4065905 3.89817861,25.7952018 4.37406926,25.7952018 L8.75526194,25.7952018 L8.75526194,28.7581602 C8.75526194,29.2375015 9.14107575,29.6261128 9.61696639,29.6261128 L20.1028181,29.6261128 C20.5787088,29.6261128 20.9645226,29.2375015 20.9645226,28.7581602 L20.9645226,20.0558368 C23.3340375,17.8694644 24.6851901,14.789911 24.6851901,11.5433056 C24.6851901,5.17832047 19.5442038,0 13.2250378,0 L13.2250378,0 Z M19.5433421,19.004862 C19.3516416,19.169773 19.2411711,19.4110059 19.2411711,19.6649688 L19.2411711,27.8902077 L10.4787283,27.8902077 L10.4787283,24.9272493 C10.4787283,24.447908 10.0929145,24.0592967 9.61702384,24.0592967 L5.23583116,24.0592967 L5.23583116,20.2293116 C5.23583116,19.8594481 5.00317096,19.5302626 4.65624874,19.4092122 L1.94331589,18.4624496 L3.45129868,13.439319 C3.47577109,13.3578472 3.48817963,13.2731929 3.48817963,13.1880757 L3.48817963,11.5433056 C3.48817963,6.13549852 7.85610206,1.73590504 13.2250378,1.73590504 C18.5939736,1.73590504 22.9618386,6.13549852 22.9618386,11.5433056 C22.9618386,14.416865 21.715814,17.1365074 19.5433421,19.004862 Z" id="Shape" fill="#000000"></path>
            </g>
        </g>
    </g>
</svg>