<svg xmlns="http://www.w3.org/2000/svg" width="120" height="26" viewBox="0 0 120 26">
    <g fill="none" fill-rule="evenodd">
        <path fill="#FEFEFE" d="M1.372 24.035h116.799V1.472H1.372z"/>
        <path fill="#000" d="M8.404 7.017h3.783v7.966h5.318v3.186H8.404zM22.646 7.017h4.236l2.199 6.26 2.198-6.26h4.171l-4.59 11.232h-3.622zM35.596 7.017h9.651v3.058h-5.933v1.132h5.529v2.692h-5.529v1.211h6.014v3.059h-9.732zM49.806 7.017h3.54l4.026 4.922V7.017h3.75v11.152H57.76l-4.203-5.146v5.146h-3.75z"/>
        <path fill="#000" d="M68.592 14.027l-1.035-2.709-1.034 2.709h2.069zm-2.878-7.09h3.75l4.77 11.232h-4.106l-.599-1.498h-3.96l-.582 1.498h-4.042l4.77-11.232zM74.848 10.171h-3.33V7.017h10.444v3.154h-3.33v7.998h-3.784zM82.527 18.169h3.783V7.017h-3.783zM95.59 12.625v-.032c0-1.323-.922-2.518-2.377-2.518-1.439 0-2.344 1.18-2.344 2.486v.032c0 1.322.922 2.517 2.376 2.517 1.44 0 2.345-1.18 2.345-2.485m-8.536 0v-.032c0-3.234 2.7-5.815 6.191-5.815 3.492 0 6.16 2.549 6.16 5.783v.032c0 3.234-2.7 5.815-6.192 5.815s-6.16-2.55-6.16-5.783M99.793 7.017h3.54l4.026 4.922V7.017h3.75v11.152h-3.362l-4.203-5.146v5.146h-3.751z"/>
        <path fill="#000" d="M2.509 22.683h114.29V2.593H2.509v20.09zM0 25.155h119.307V.12H0v25.035z"/>
        <path fill="#000" d="M24.009 4.752l-.29-.505c-.048-.085-.128-.019-.128-.019s-.249.184-.382.27c-.132.09-.123.19-.123.246 0 .055-.042.385-.042.385a.33.33 0 0 1-.078.173l-2.173 1.66-.27.062-.671.32.039-.451c.047.027.123.096.176.103.064.01.162-.017.162-.017s-.036-.086-.036-.137c0-.05.012-.13.012-.13s.103.063.177.064a.272.272 0 0 0 .162-.048c.037-.03.073-.07.073-.07s-.126-.075-.168-.117c-.03-.033-.074-.08-.044-.08.063 0 .156-.087.156-.087s-.067-.04-.117-.081a.305.305 0 0 1-.105-.149c-.024-.059-.035-.11-.035-.11s.039.05.127.048a.303.303 0 0 0 .142-.048s-.059-.033-.096-.073a.399.399 0 0 1-.093-.153c-.028-.087-.04-.13-.063-.198-.01-.03-.017-.082-.043-.167-.028-.193-.113-.274-.113-.274-.256-.336-.84-.426-.84-.426-.3-.062-.596.321-.717.706-.199.635-.14 1.262-.14 1.262s.01.118.116.185c.063.039.314.095.314.095l-.027.519-.62.054-.853-.503-1.725-1.26s-.073-.045-.082-.179c0 0-.043-.328-.043-.385 0-.055.01-.155-.124-.245-.133-.089-.38-.27-.38-.27s-.08-.066-.129.018l-.29.507.127.482s.054.095.13.183l.11.111.64.565.013.004 1.048.922.3.288s.022.036.022.093c0 .056-.006.233-.006.233s-.004.054.03.085c.036.034.598.486.598.486s.04.032.04.111l.1 3.328s0 .051.055.051l.18.067.411 3.635.789 2.402-1.256.6s-.045.021-.068.076c0 0-.073.139-.073.168 0 .047.038.058.038.058l1.873.003-.179.48-.046.128s-.067.244.04.282c.108.034.441.048.586.04.184-.01.517-.035.57-.087.05-.05.073-.271-.195-1.746l-.16-5.677.48-3.558c.044-.394.098-.438.098-.438s.508-.374.556-.419c.05-.045.041-.117.041-.117V7.69c0-.078.03-.13.03-.13l.414-.393.124-.124 1.325-1.253.231-.26.111-.11c.078-.088.128-.182.128-.182s.094-.235.129-.315c.034-.081 0-.17 0-.17"/>
        <path fill="#231F20" d="M113.902 7.828c.106 0 .163-.056.163-.134V7.69c0-.09-.064-.136-.168-.136h-.204v.275h.21zm-.419-.457h.422c.128 0 .226.037.293.102.051.051.078.122.078.204v.005a.29.29 0 0 1-.204.289l.231.335h-.243l-.202-.301h-.165v.3h-.21v-.934zm1.155.493v-.005a.772.772 0 0 0-.785-.776c-.45 0-.79.351-.79.78v.006c0 .43.337.776.785.776.45 0 .79-.352.79-.781zm-1.679.005v-.005c0-.478.394-.878.894-.878s.889.395.889.873v.005a.887.887 0 0 1-.894.878.878.878 0 0 1-.889-.873z"/>
    </g>
</svg>
