<svg xmlns="http://www.w3.org/2000/svg" width="19" height="17" viewBox="0 0 19 17">
    <path fill="#FFF" fill-rule="evenodd" stroke="#FFF" stroke-width=".2" d="M9.247 1.083c.15-.11.355-.11.505 0h0L13.1 3.55h1.925l.077.007c.198.036.348.21.348.418h0V5.28l2.377 1.752c.109.08.173.207.173.342h0v8.5c0 .235-.19.425-.425.425h0-16.15c-.235 0-.425-.19-.425-.425h0v-8.5c0-.135.064-.262.172-.342h0L3.55 5.28V3.975l.007-.077c.036-.198.21-.348.418-.348H5.9zm3.068 10.116l-2.589 1.635c-.138.088-.314.088-.453 0h0L6.685 11.2 2.45 15.45h14.102l-4.236-4.25zm4.835-3.053l-4.098 2.588 4.098 4.112v-6.7zm-15.3 0v6.7l4.098-4.112L1.85 8.146zm9.926-2.847s-1.805.045-3.151 2.492h0l-.506-.726c-.168-.24-1.042.37-.874.61h0l.942 1.35c.167.24.501.3.742.133.068-.048.121-.11.159-.178h0l.003-.005c.012-.022.023-.045.031-.069.194-.417 1.22-2.525 2.654-3.607zM3.55 6.337l-1.372 1.01 1.372.867V6.337zm11.9 0v1.877l1.372-.866-1.372-1.011zM9.5 1.953L7.333 3.55h4.334L9.5 1.953z"/>
</svg>
