<?xml version="1.0" encoding="UTF-8"?>
<svg width="373px" height="92px" viewBox="0 0 373 92" version="1.1" xmlns="http://www.w3.org/2000/svg" xmlns:xlink="http://www.w3.org/1999/xlink">
    <title>Group</title>
    <defs>
        <linearGradient x1="126.459526%" y1="46.4138948%" x2="2.2996889%" y2="50.8456941%" id="linearGradient-1">
            <stop stop-color="#00287C" offset="0%"></stop>
            <stop stop-color="#003DBC" offset="100%"></stop>
        </linearGradient>
        <path d="M2.84217094e-14,-3.55271368e-14 L356.946708,7.10542736e-15 L356.946708,66.6587537 L330.392708,66.6587537 L330.39185,26.5400593 L26.5548589,26.5400593 L26.555,61.536 L26.6098576,61.5175981 L26.6098576,70.1119853 L13.3049288,75.0712609 L-4.05009359e-13,70.1119853 L2.84217094e-14,-3.55271368e-14 Z" id="path-2"></path>
        <filter x="-3.9%" y="-13.3%" width="107.8%" height="137.3%" filterUnits="objectBoundingBox" id="filter-3">
            <feOffset dx="0" dy="4" in="SourceAlpha" result="shadowOffsetOuter1"></feOffset>
            <feGaussianBlur stdDeviation="4" in="shadowOffsetOuter1" result="shadowBlurOuter1"></feGaussianBlur>
            <feComposite in="shadowBlurOuter1" in2="SourceAlpha" operator="out" result="shadowBlurOuter1"></feComposite>
            <feColorMatrix values="0 0 0 0 0   0 0 0 0 0   0 0 0 0 0  0 0 0 0.5 0" type="matrix" in="shadowBlurOuter1"></feColorMatrix>
        </filter>
    </defs>
    <g id="Page-1" stroke="none" stroke-width="1" fill="none" fill-rule="evenodd">
        <g id="Group" transform="translate(8.000000, 4.000000)">
            <g id="Combined-Shape-Copy">
                <use fill="black" fill-opacity="1" filter="url(#filter-3)" xlink:href="#path-2"></use>
                <path stroke="#1C1C1C" stroke-width="2" d="M1,1 L355.946708,1 L355.946708,65.6587537 L331.392687,65.6587537 L331.391828,25.5400593 L25.5548543,25.5400593 L25.5550205,61.5423965 L25.6054055,69.4191756 L13.3049288,74.004052 L1,69.4175161 L1,1 Z" stroke-linejoin="square" fill="url(#linearGradient-1)" fill-rule="evenodd"></path>
            </g>
            <line x1="357.230031" y1="5" x2="357.230031" y2="17" id="Line-3-Copy-4" stroke="#000000" stroke-width="2" stroke-linecap="square" transform="translate(357.230031, 11.000000) rotate(-90.000000) translate(-357.230031, -11.000000) "></line>
        </g>
    </g>
</svg>