<?xml version="1.0" encoding="UTF-8"?>
<svg width="46px" height="46px" viewBox="0 0 46 46" version="1.1" xmlns="http://www.w3.org/2000/svg" xmlns:xlink="http://www.w3.org/1999/xlink">
    <!-- Generator: Sketch 63.1 (92452) - https://sketch.com -->
    <title>logo-main</title>
    <desc>Created with Sketch.</desc>
    <g id="Flow" stroke="none" stroke-width="1" fill="none" fill-rule="evenodd">
        <g id="Desktop-HD-Copy-3" transform="translate(-863.000000, -409.000000)" fill="#202020" fill-rule="nonzero">
            <g id="logo-main" transform="translate(863.000000, 409.000000)">
                <path d="M13.5714209,22.0010261 C12.5529862,21.9719305 11.6187855,22.5637879 11.2100537,23.4970566 C10.801322,24.4303252 10.9998435,25.5182645 11.7118541,26.2470267 C12.4238647,26.9757889 13.5068959,27.1995539 14.4494184,26.8126345 C15.3919408,26.425715 16.0053621,25.5055312 16,24.4866975 C16.007985,23.1327963 14.9251457,22.0244808 13.5714209,22.0010261" id="Path"></path>
                <path d="M41.5447918,25.2108675 C38.9049192,24.9633788 34.6811232,23.6929364 27.7844562,17.2087308 C23.0821832,12.3579511 18.1324222,10.2130484 13.1826612,10.8070215 C11.7866532,10.9860447 10.4246114,11.3696412 9.1403564,11.9454698 C8.40392634,12.3450461 7.70773862,12.8146979 7.06145678,13.3479061 C11.5988846,5.80331712 20.7921379,2.45639602 29.1180259,5.3179308 C37.443914,8.17946559 42.6371862,16.4709095 41.5777902,25.2108675 M23.0161864,41.7101184 C12.7187091,41.7103143 4.35309929,33.3962745 4.28959062,23.0989634 C4.28959062,22.5874866 4.28959062,22.0925091 4.37208663,21.5975316 C5.51053166,19.9476065 8.92586676,15.7237982 13.6941365,15.1628237 C17.224966,14.7173439 20.9372868,16.4662645 24.765102,20.3600878 C32.2392411,27.3887686 37.2220005,29.1046907 40.5218412,29.5336712 C37.819808,36.8897385 30.8197877,41.7825231 22.983188,41.7926147 M22.983188,6.06405942e-06 C10.2957636,0.00923116328 0.0120792929,10.2906441 1.0594651e-05,22.9781027 C-0.012036877,35.6655614 10.2520861,45.966503 22.93947,45.9999193 C35.626854,46.0331734 45.9449646,35.7863102 45.99979,23.0989634 C46.0259198,16.9790013 43.6120916,11.1008983 39.2923457,6.7656569 C34.9725998,2.43041553 29.1031876,-0.00443480901 22.983188,6.06405942e-06" id="Shape"></path>
            </g>
        </g>
    </g>
</svg>