<?xml version="1.0" encoding="UTF-8"?>
<svg width="466px" height="98px" viewBox="0 0 466 98" version="1.1" xmlns="http://www.w3.org/2000/svg" xmlns:xlink="http://www.w3.org/1999/xlink">
    <!-- Generator: Sketch 51.2 (57519) - http://www.bohemiancoding.com/sketch -->
    <title>Group</title>
    <desc>Created with Sketch.</desc>
    <defs></defs>
    <g id="Page-1" stroke="none" stroke-width="1" fill="none" fill-rule="evenodd">
        <g id="Large-Tile-for-CemtrexVR-site" transform="translate(-622.000000, -601.000000)" fill="#FFFFFF">
            <g id="Group" transform="translate(622.000000, 601.000000)">
                <path d="M18.2924988,48.1640698 C18.2924988,64.3758098 29.6285276,79.368622 47.1810882,79.368622 C51.4473355,79.368622 56.5668324,78.0278014 60.8330797,75.9556241 L20.6084617,35.7310061 C19.1457483,39.6315751 18.2924988,43.8978224 18.2924988,48.1640698 Z M76.313463,48.1640698 C76.313463,31.9523298 66.0744694,17.325196 47.1810882,17.325196 C41.2083418,17.325196 36.088845,18.9098021 31.8225976,21.5914433 L73.1442507,62.9130964 C75.0945352,58.7687418 76.313463,52.9178883 76.313463,48.1640698 Z M94.8411659,85.2194755 C95.4506298,85.5851539 95.4506298,86.3165106 94.8411659,86.8040817 L84.3583866,97.4087537 C83.7489227,97.7744321 83.017566,97.7744321 82.4081021,97.4087537 L73.6318218,88.5105806 C65.9525766,93.5081847 56.8106179,96.5555042 47.1810882,96.5555042 C19.1457483,96.5555042 0.496152669,73.8834468 0.496152669,48.1640698 C0.496152669,22.6884784 18.2924988,0.138313726 47.1810882,0.138313726 C74.9726424,0.138313726 93.9879164,22.6884784 93.9879164,48.1640698 C93.9879164,57.6717068 90.9405969,68.5201644 85.9429928,76.1994097 L94.8411659,85.2194755 Z M171.999297,0.138313726 C172.608761,0.138313726 173.218225,0.747777636 173.218225,1.23534876 L173.218225,65.1071665 C173.218225,85.7070467 157.372163,97.6525393 136.65039,97.6525393 C116.538081,97.6525393 100.082556,85.2194755 100.082556,65.1071665 L100.082556,17.8127671 L118.488366,17.8127671 L118.488366,64.9852737 C119.585401,74.6148035 127.630324,79.7343003 136.65039,79.7343003 C145.792349,79.7343003 154.812415,74.9804818 154.812415,65.1071665 L154.812415,1.23534876 C154.812415,0.747777636 155.299986,0.138313726 156.153235,0.138313726 L171.999297,0.138313726 Z M253.423675,96.1898259 C253.789354,96.9211826 253.17989,97.6525393 252.32664,97.6525393 L235.505436,97.6525393 C235.139758,97.6525393 234.530294,97.4087537 234.408401,96.9211826 L215.149342,42.5570018 L196.134068,96.9211826 C196.012175,97.4087537 195.402711,97.6525393 194.91514,97.6525393 L178.215829,97.6525393 C177.118794,97.6525393 176.631223,96.9211826 176.996901,96.1898259 L213.930414,0.869670417 C214.296092,-0.105471838 216.002591,-0.105471838 216.368269,0.869670417 L253.423675,96.1898259 Z" id="QuaZar"></path>
                <path d="M314.370066,79.6124076 C315.223316,79.6124076 315.710887,80.0999787 315.710887,80.7094426 L315.710887,96.5555042 C315.710887,97.0430754 315.101423,97.6525393 314.248173,97.6525393 L258.90885,97.6525393 C257.689923,97.6525393 257.202351,97.0430754 257.56803,96.0679331 L264.272133,79.6124076 L314.370066,79.6124076 Z" id="Path"></path>
                <path d="M258.665065,18.3003382 C257.933708,18.3003382 257.324244,17.6908743 257.324244,17.0814104 L257.324244,1.23534876 C257.324244,0.747777636 257.933708,0.138313726 258.665065,0.138313726 L314.126281,0.138313726 C315.223316,0.138313726 315.710887,0.747777636 315.467101,1.72291989 L291.698009,60.9628119 L271.707592,60.9628119 L288.772582,18.3003382 L258.665065,18.3003382 Z" id="Path"></path>
                <path d="M395.184981,96.1898259 C395.550659,96.9211826 394.941195,97.6525393 394.087946,97.6525393 L377.266742,97.6525393 C376.901063,97.6525393 376.291599,97.4087537 376.169707,96.9211826 L356.910647,42.5570018 L337.895373,96.9211826 C337.77348,97.4087537 337.164016,97.6525393 336.676445,97.6525393 L319.977134,97.6525393 C318.880099,97.6525393 318.392528,96.9211826 318.758206,96.1898259 L355.691719,0.869670417 C356.057398,-0.105471838 357.763897,-0.105471838 358.129575,0.869670417 L395.184981,96.1898259 Z" id="Path"></path>
                <path d="M465.639009,96.0679331 C466.004687,96.9211826 465.517116,97.6525393 464.541974,97.6525393 L447.111306,97.6525393 C446.745627,97.6525393 446.014271,97.2868609 445.892378,96.9211826 L428.096032,58.2811707 L417.613252,58.2811707 L417.613252,96.5555042 C417.613252,97.0430754 417.003789,97.6525393 416.272432,97.6525393 L400.304477,97.6525393 C399.695014,97.6525393 399.08555,97.0430754 399.08555,96.5555042 L399.08555,40.3629318 L431.874708,40.3629318 C435.89717,40.3629318 446.258056,39.8753606 446.258056,29.1487958 C446.258056,18.422231 434.800135,17.8127671 431.874708,17.8127671 L399.08555,17.8127671 L399.08555,1.23534876 C399.08555,0.747777636 399.695014,0.138313726 400.304477,0.138313726 L431.874708,0.138313726 C437.359883,0.138313726 464.785759,0.38209929 464.785759,29.1487958 C464.785759,44.0197152 456.618943,51.8208533 446.86752,55.3557439 C452.962159,69.1296283 459.544369,82.5378343 465.639009,96.0679331 Z" id="Path"></path>
            </g>
        </g>
    </g>
</svg>