<svg xmlns="http://www.w3.org/2000/svg" width="16" height="20" viewBox="0 0 16 20">
    <path fill="#151515" fill-rule="evenodd" d="M6.754 0c3.73 0 6.754 3.14 6.754 7.015a7.145 7.145 0 0 1-1.7 4.654l3.935 5.902a1.579 1.579 0 0 1-.378 2.148 1.441 1.441 0 0 1-2.052-.362L9.39 13.476c-.81.357-1.701.554-2.636.554C3.024 14.03 0 10.89 0 7.015 0 3.141 3.024 0 6.754 0zm0 2.338c-2.487 0-4.503 2.094-4.503 4.677 0 2.583 2.016 4.677 4.503 4.677a4.37 4.37 0 0 0 2.614-.87.261.261 0 0 1 .04-.033l.026-.016a4.73 4.73 0 0 0 1.822-3.758c0-2.583-2.015-4.677-4.502-4.677z"/>
</svg>
